<?xml version="1.0" standalone="no"?>
<!DOCTYPE svg PUBLIC "-//W3C//DTD SVG 20010904//EN"
 "http://www.w3.org/TR/2001/REC-SVG-20010904/DTD/svg10.dtd">
<svg version="1.0" xmlns="http://www.w3.org/2000/svg"
 width="2000.000000pt" height="2000.000000pt" viewBox="0 0 2000.000000 2000.000000"
 preserveAspectRatio="xMidYMid meet">

<g transform="translate(0.000000,2000.000000) scale(0.100000,-0.100000)"
fill="#000000" stroke="none">
<path d="M16260 17115 l0 -25 275 0 275 0 0 25 0 25 -275 0 -275 0 0 -25z"/>
<path d="M16260 17015 l0 -25 275 0 275 0 0 25 0 25 -275 0 -275 0 0 -25z"/>
<path d="M16260 16925 l0 -24 275 -3 275 -3 0 28 0 27 -275 0 -275 0 0 -25z"/>
<path d="M16260 16825 l0 -25 275 0 275 0 0 25 0 25 -275 0 -275 0 0 -25z"/>
<path d="M16260 16725 l0 -25 275 0 275 0 0 25 0 25 -275 0 -275 0 0 -25z"/>
<path d="M16270 16652 c-6 -2 -10 -15 -10 -28 l0 -24 275 0 275 0 0 25 0 24
-265 3 c-146 2 -270 2 -275 0z"/>
<path d="M16260 16535 l0 -25 275 0 275 0 0 25 0 25 -275 0 -275 0 0 -25z"/>
<path d="M16260 16435 l0 -25 180 0 180 0 0 25 0 25 -180 0 -180 0 0 -25z"/>
<path d="M13903 16263 c-18 -7 -19 -1353 -1 -1371 9 -9 174 -12 681 -12 566 0
671 2 683 14 12 12 14 117 14 683 0 507 -3 672 -12 681 -9 9 -173 12 -683 11
-368 0 -676 -3 -682 -6z m557 -233 c0 -27 63 -54 92 -39 17 9 26 6 54 -22 26
-25 31 -36 23 -46 -8 -9 -8 -25 2 -58 11 -36 18 -45 36 -45 21 0 23 -5 23 -50
0 -45 -2 -50 -22 -50 -17 0 -27 -10 -39 -39 -15 -36 -15 -40 -1 -55 15 -15 13
-19 -21 -53 -34 -34 -38 -36 -53 -21 -15 14 -19 14 -55 -1 -29 -12 -39 -22
-39 -38 0 -21 -5 -23 -50 -23 -47 0 -50 2 -50 25 0 14 -6 25 -12 25 -7 0 -25
7 -40 14 -24 13 -30 13 -42 0 -18 -17 -35 -11 -64 26 -18 24 -21 33 -11 47 16
27 -12 93 -40 93 -18 0 -21 6 -21 50 0 43 3 50 20 50 29 0 55 66 39 98 -12 20
-9 26 19 55 28 27 35 30 51 20 29 -18 95 6 99 35 3 19 10 22 53 22 42 0 49 -3
49 -20z m400 -309 c0 -21 50 -44 75 -34 8 3 27 -2 41 -12 21 -13 24 -21 19
-45 -7 -33 9 -70 30 -70 25 0 19 -68 -7 -89 -15 -13 -22 -30 -22 -58 -1 -49
-21 -76 -52 -69 -33 9 -84 -13 -84 -35 0 -17 -6 -19 -37 -16 -25 3 -39 10 -44
24 -8 22 -48 37 -73 27 -9 -3 -16 -16 -16 -29 0 -12 -9 -29 -21 -37 -12 -8
-22 -26 -23 -43 -5 -53 -15 -64 -54 -63 -26 1 -39 -4 -50 -20 -16 -25 -72 -31
-72 -9 0 20 -49 40 -64 27 -16 -12 -62 33 -51 50 11 17 -4 60 -20 60 -10 0
-15 11 -15 35 0 23 5 35 14 35 15 0 30 45 20 61 -10 17 37 61 52 49 15 -13 64
7 64 27 0 8 12 13 35 13 23 0 35 -5 35 -13 0 -19 45 -38 58 -25 6 6 17 2 32
-14 18 -18 22 -19 16 -5 -3 10 -6 23 -6 28 0 5 -9 9 -20 9 -17 0 -20 7 -20 41
0 32 3 40 15 35 22 -8 51 52 36 76 -9 14 -6 22 16 42 19 18 30 22 39 15 19
-16 64 1 74 27 8 19 17 24 45 24 28 0 35 -4 35 -19z"/>
<path d="M14371 15879 c-45 -18 -71 -56 -71 -106 0 -38 5 -50 34 -79 38 -38
77 -44 125 -20 87 46 78 163 -15 202 -38 16 -41 16 -73 3z"/>
<path d="M14765 15575 c-54 -53 -15 -145 61 -145 45 0 84 39 84 85 0 75 -92
113 -145 60z"/>
<path d="M14647 15413 c-4 -3 -7 -11 -7 -17 0 -6 5 -5 12 2 6 6 9 14 7 17 -3
3 -9 2 -12 -2z"/>
<path d="M14456 15369 c-19 -15 -26 -30 -26 -54 0 -56 69 -95 111 -62 20 15
39 51 39 72 0 23 -49 65 -75 65 -12 0 -34 -9 -49 -21z"/>
<path d="M13149 15912 c-66 -42 -84 -74 -84 -152 0 -77 22 -116 89 -155 79
-46 181 -22 238 58 18 25 23 45 23 97 0 77 -22 116 -89 155 -59 35 -118 34
-177 -3z"/>
<path d="M17470 15145 l0 -25 275 0 275 0 0 25 0 25 -275 0 -275 0 0 -25z"/>
<path d="M17470 15045 l0 -25 275 0 275 0 0 25 0 25 -275 0 -275 0 0 -25z"/>
<path d="M17470 14945 l0 -25 275 0 275 0 0 25 0 25 -275 0 -275 0 0 -25z"/>
<path d="M17470 14848 l0 -28 275 0 275 0 0 25 0 24 -275 3 -275 3 0 -27z"/>
<path d="M17470 14753 l0 -28 275 3 275 3 0 24 0 25 -275 0 -275 0 0 -27z"/>
<path d="M17470 14655 l0 -25 275 0 275 0 0 25 0 25 -275 0 -275 0 0 -25z"/>
<path d="M17470 14555 l0 -25 275 0 275 0 0 25 0 25 -275 0 -275 0 0 -25z"/>
<path d="M17643 14482 l-173 -2 0 -25 0 -25 180 0 180 0 0 24 c0 14 -3 26 -7
28 -5 2 -86 2 -180 0z"/>
<path d="M3902 14287 c-18 -5 -53 -28 -78 -50 -83 -73 -124 -191 -124 -359 0
-152 20 -235 114 -476 58 -148 69 -266 31 -355 -11 -27 23 -11 67 31 40 38 63
88 83 180 l13 57 2 -75 2 -75 20 44 c40 88 35 240 -13 389 -28 84 -28 147 -2
173 22 22 103 39 103 21 0 -5 5 -56 10 -112 24 -228 116 -399 265 -492 28 -17
66 -47 86 -65 l36 -35 -32 64 c-17 35 -34 73 -37 86 -4 12 -13 22 -22 22 -25
0 -88 35 -115 64 -16 17 -25 41 -29 74 -4 44 -1 53 25 82 24 27 37 33 71 33
23 0 53 -8 66 -17 23 -15 26 -15 34 0 8 14 31 16 178 15 184 -2 214 -6 214
-27 0 -26 39 -54 73 -54 38 0 71 29 81 72 12 50 87 49 94 0 4 -27 47 -62 76
-62 36 0 63 27 96 97 96 206 73 434 -55 552 -45 41 -45 42 -30 71 8 16 15 38
15 48 0 44 -118 62 -253 39 -87 -15 -89 -15 -140 8 -144 66 -335 46 -479 -51
-53 -36 -60 -36 -98 6 -62 69 -248 110 -348 77z m1148 -333 c0 -14 -65 -97
-118 -151 -67 -69 -121 -107 -211 -152 -40 -21 -60 -36 -54 -42 23 -23 191 78
283 171 33 34 74 82 92 106 17 24 36 44 41 44 11 0 73 -63 87 -89 8 -17 4 -18
-47 -17 -37 1 -57 -3 -60 -11 -3 -9 8 -13 36 -13 23 0 56 -6 74 -14 28 -11 35
-22 50 -72 9 -33 19 -71 22 -86 5 -25 4 -26 -25 -18 -16 5 -30 6 -30 2 0 -3
-5 -1 -12 6 -8 8 -8 15 2 27 16 19 7 19 -30 0 -32 -16 -45 -44 -35 -75 7 -23
2 -25 -26 -10 -13 8 -25 7 -40 -1 -18 -9 -25 -7 -46 15 -42 46 -109 33 -134
-26 l-14 -33 -5 40 c-3 22 -2 46 4 53 14 20 3 22 -32 5 -31 -15 -37 -27 -34
-66 2 -16 -10 -18 -143 -16 -80 0 -145 3 -145 6 0 3 5 23 11 44 10 33 19 41
66 60 30 12 94 46 143 75 48 30 98 54 110 54 15 0 20 5 17 14 -3 8 23 36 72
75 43 33 86 70 96 81 17 19 35 26 35 14z m188 -377 c23 -27 24 -62 2 -90 -25
-31 -60 -35 -82 -9 -28 32 -28 50 -2 66 13 9 24 23 24 31 0 18 43 20 58 2z
m-244 -30 c19 -26 19 -30 6 -54 -20 -35 -42 -47 -72 -40 -33 9 -53 54 -39 89
18 47 72 49 105 5z"/>
<path d="M13968 13543 c-2 -153 -2 -290 0 -305 l3 -28 565 0 564 0 0 305 0
305 -565 0 -564 0 -3 -277z m932 177 c0 -20 -7 -20 -425 -20 -370 0 -425 2
-425 15 0 13 56 15 423 18 232 1 423 3 425 5 1 1 2 -7 2 -18z m-440 -85 c0
-13 -29 -15 -205 -15 -176 0 -205 2 -205 15 0 13 29 15 205 15 176 0 205 -2
205 -15z m110 -80 c0 -13 -36 -15 -260 -15 -224 0 -260 2 -260 15 0 13 36 15
260 15 224 0 260 -2 260 -15z m-330 -80 c0 -12 -17 -15 -95 -15 -78 0 -95 3
-95 15 0 12 17 15 95 15 78 0 95 -3 95 -15z m-60 -80 c0 -12 -14 -15 -65 -15
-51 0 -65 3 -65 15 0 12 14 15 65 15 51 0 65 -3 65 -15z"/>
<path d="M16260 13400 c-20 -20 -20 -33 -20 -899 0 -956 -3 -903 53 -916 12
-3 410 -4 884 -3 812 3 863 4 880 21 17 17 18 68 21 891 2 872 2 873 -19 899
l-20 27 -880 0 c-866 0 -879 0 -899 -20z m1045 -291 c128 -33 262 -118 337
-213 236 -298 160 -732 -163 -928 -109 -66 -176 -83 -324 -83 -110 1 -140 4
-195 24 -93 33 -175 86 -252 162 -136 137 -201 351 -164 542 42 216 176 382
376 467 112 47 272 59 385 29z"/>
<path d="M4800 13261 c0 -15 67 -61 111 -76 55 -20 99 -20 99 0 0 10 -10 15
-29 15 -39 0 -90 19 -127 47 -32 24 -54 30 -54 14z"/>
<path d="M5009 12661 c11 -20 73 -65 108 -78 12 -5 15 -2 10 9 -4 12 -1 14 14
11 26 -7 24 -19 -3 -27 -15 -4 -19 -9 -12 -13 29 -21 69 -140 53 -160 -7 -7
-8 -30 -4 -55 4 -31 3 -39 -4 -28 -9 12 -11 11 -12 -7 -1 -13 -2 -29 -3 -35
-1 -7 -3 -15 -6 -18 -3 -3 -20 -35 -37 -72 -18 -38 -38 -68 -43 -68 -6 0 -33
11 -60 25 -28 14 -50 22 -50 18 0 -4 -6 0 -12 9 -7 9 -35 28 -63 43 -80 43
-205 145 -254 208 -37 48 -45 66 -49 111 -4 50 -2 55 22 71 15 10 31 26 37 36
9 17 7 17 -36 4 -60 -17 -122 -64 -104 -76 8 -5 11 -9 6 -9 -4 0 -16 5 -26 12
-20 12 -161 -15 -367 -73 l-110 -30 -83 -191 c-265 -607 -450 -1152 -495
-1459 -35 -237 -12 -360 77 -406 48 -24 188 -29 267 -9 136 35 298 146 418
286 35 41 69 75 75 75 7 0 20 16 29 35 l17 35 -57 107 c-76 144 -74 141 -105
127 -15 -7 -27 -18 -29 -26 -3 -13 -247 -148 -254 -140 -3 2 280 475 383 641
l31 49 25 -109 c15 -60 36 -164 49 -231 l22 -122 21 39 c11 22 29 50 41 63 19
22 21 40 27 227 5 146 10 207 19 216 9 8 97 18 258 28 135 9 295 21 355 26
l110 9 28 -28 29 -28 -17 -514 c-9 -283 -18 -521 -21 -531 -3 -9 -11 -18 -18
-21 -7 -3 -169 -17 -360 -32 l-347 -28 -24 23 c-24 23 -25 27 -27 201 l-3 177
-24 -19 -23 -19 10 -132 10 -133 -74 -220 c-148 -433 -250 -834 -289 -1132
l-7 -52 62 -7 61 -7 -4 -311 c-7 -450 8 -788 59 -1356 56 -625 170 -1440 298
-2132 15 -76 37 -198 51 -270 13 -73 49 -257 80 -408 30 -151 55 -276 55 -277
0 -2 93 -3 207 -3 l206 0 -5 1833 -6 1832 68 -270 c81 -324 123 -473 250 -905
184 -624 523 -1585 812 -2305 l64 -160 46 -5 c26 -3 44 -2 42 2 -3 4 10 9 28
9 46 2 73 6 158 24 41 9 90 19 108 22 17 3 32 11 32 17 0 7 -16 102 -35 211
-20 110 -72 403 -115 650 -292 1659 -277 1577 -416 2295 -30 157 -64 332 -75
390 -11 58 -36 184 -54 280 -19 96 -64 328 -100 515 -36 187 -68 350 -70 362
-4 17 1 23 25 28 16 4 32 10 34 14 5 7 -39 260 -195 1143 l-51 287 11 228 c6
126 14 346 17 490 l7 261 136 -125 c294 -272 491 -408 649 -448 57 -15 67 -15
125 0 167 43 412 254 683 590 53 66 102 120 108 120 16 0 56 78 46 90 -9 11
-75 124 -97 168 -8 15 -18 27 -23 27 -5 0 -24 -15 -42 -34 -36 -36 -237 -192
-383 -297 -186 -134 -333 -219 -377 -219 -30 0 -76 51 -364 407 -289 357 -444
535 -507 584 -52 41 -61 42 -427 59 -161 7 -199 12 -221 26 -8 4 -7 0 0 -15z
m-448 -78 c13 -17 13 -17 -6 -3 -11 8 -22 16 -24 17 -2 2 0 3 6 3 6 0 17 -8
24 -17z m644 -13 c4 -6 -1 -7 -11 -3 -11 4 -15 2 -11 -4 4 -5 0 -19 -9 -29
-14 -18 -15 -18 -4 4 8 17 8 22 -2 22 -9 0 -9 3 2 10 19 12 27 12 35 0z m-747
-50 c-7 -10 -14 -17 -17 -15 -4 4 18 35 25 35 2 0 -1 -9 -8 -20z m733 -7 c-12
-20 -14 -14 -5 12 4 9 9 14 11 11 3 -2 0 -13 -6 -23z m114 -13 c3 -5 1 -10 -4
-10 -6 0 -11 5 -11 10 0 6 2 10 4 10 3 0 8 -4 11 -10z m-105 -20 c0 -5 -2 -10
-4 -10 -3 0 -8 5 -11 10 -3 6 -1 10 4 10 6 0 11 -4 11 -10z m-760 -4 c0 -3 -4
-8 -10 -11 -5 -3 -10 -1 -10 4 0 6 5 11 10 11 6 0 10 -2 10 -4z m168 -52 c-4
-3 -12 5 -18 18 -12 22 -12 22 6 6 10 -10 15 -20 12 -24z m-34 10 c3 -8 2 -12
-4 -9 -6 3 -10 10 -10 16 0 14 7 11 14 -7z m837 -6 c11 -21 11 -22 -4 -9 -10
7 -17 17 -17 22 0 15 9 10 21 -13z m-34 -44 c-3 -3 -12 -4 -19 -1 -8 3 -5 6 6
6 11 1 17 -2 13 -5z m60 0 c-3 -3 -12 -4 -19 -1 -8 3 -5 6 6 6 11 1 17 -2 13
-5z m-767 -59 c-10 -12 -9 -15 5 -15 10 0 16 -3 12 -6 -3 -3 -16 -3 -28 1 -22
7 -22 8 -4 21 25 18 31 18 15 -1z m-213 -21 c-3 -3 -12 -4 -19 -1 -8 3 -5 6 6
6 11 1 17 -2 13 -5z m284 -11 c12 -16 12 -17 -2 -6 -9 7 -20 9 -24 5 -5 -4 -5
-1 -1 6 9 16 11 15 27 -5z m449 -67 c0 -39 -6 -30 -13 19 -4 27 -3 35 3 25 5
-8 10 -28 10 -44z m-28 -3 c-3 -16 -7 -22 -10 -15 -4 13 4 42 11 42 2 0 2 -12
-1 -27z m-308 -22 c-2 -3 -12 3 -22 13 -16 17 -16 18 5 5 12 -7 20 -15 17 -18z
m52 -18 c-6 -6 -36 9 -36 18 0 5 9 4 20 -3 10 -7 18 -14 16 -15z m71 -39 c-3
-3 -12 -4 -19 -1 -8 3 -5 6 6 6 11 1 17 -2 13 -5z"/>
<path d="M15549 12632 c-66 -42 -84 -74 -84 -152 0 -77 22 -116 89 -155 62
-36 120 -34 182 8 57 39 84 86 84 147 0 61 -27 108 -84 148 -64 43 -123 44
-187 4z"/>
<path d="M7884 12608 c-14 -31 -19 -65 -19 -128 0 -63 5 -97 19 -128 10 -23
23 -42 28 -42 13 0 9 17 -14 56 -31 53 -32 162 0 225 24 50 26 59 14 59 -5 0
-18 -19 -28 -42z"/>
<path d="M7722 12616 c-81 -69 -83 -195 -3 -270 36 -34 46 -31 30 10 -16 37
-15 210 0 248 16 39 9 42 -27 12z"/>
<path d="M12550 11655 l0 -25 270 0 270 0 0 25 0 25 -270 0 -270 0 0 -25z"/>
<path d="M12547 11561 c-3 -11 -2 -22 1 -25 3 -3 126 -6 274 -6 l268 0 0 25 0
25 -269 0 c-258 0 -269 -1 -274 -19z"/>
<path d="M12547 11461 c-3 -11 -2 -22 1 -25 3 -3 126 -6 274 -6 l268 0 0 25 0
25 -269 0 c-258 0 -269 -1 -274 -19z"/>
<path d="M12550 11365 l0 -25 270 0 270 0 0 25 0 25 -270 0 -270 0 0 -25z"/>
<path d="M12547 11283 c-2 -5 -3 -15 -3 -23 1 -13 39 -15 274 -18 l272 -2 0
25 0 25 -269 0 c-149 0 -272 -3 -274 -7z"/>
<path d="M12550 11165 l0 -25 270 0 270 0 0 25 0 25 -270 0 -270 0 0 -25z"/>
<path d="M12550 11070 l0 -30 270 0 270 0 0 30 0 30 -270 0 -270 0 0 -30z"/>
<path d="M12550 10975 l0 -25 175 0 175 0 0 25 0 25 -175 0 -175 0 0 -25z"/>
<path d="M17160 10545 l0 -25 275 0 275 0 0 25 0 25 -275 0 -275 0 0 -25z"/>
<path d="M17160 10445 l0 -25 275 0 275 0 0 25 0 25 -275 0 -275 0 0 -25z"/>
<path d="M17160 10355 l0 -25 275 0 275 0 0 25 0 25 -275 0 -275 0 0 -25z"/>
<path d="M17160 10255 l0 -25 275 0 275 0 0 25 0 25 -275 0 -275 0 0 -25z"/>
<path d="M17160 10155 l0 -25 275 0 275 0 0 25 0 25 -275 0 -275 0 0 -25z"/>
<path d="M17160 10055 l0 -25 275 0 275 0 0 25 0 25 -275 0 -275 0 0 -25z"/>
<path d="M17160 9965 l0 -24 275 -3 275 -3 0 28 0 27 -275 0 -275 0 0 -25z"/>
<path d="M17160 9865 l0 -25 174 0 174 0 4 25 5 25 -178 0 -179 0 0 -25z"/>
<path d="M14978 9529 c-17 -9 -18 -53 -18 -689 0 -661 1 -680 19 -690 13 -6
243 -10 678 -10 531 1 661 3 676 14 16 12 17 57 17 686 0 629 -1 674 -17 686
-15 11 -145 13 -678 13 -430 0 -666 -3 -677 -10z m1122 -284 l0 -55 -90 0 -90
0 0 50 0 49 88 4 c48 1 88 4 90 5 1 1 2 -23 2 -53z m0 -155 l0 -50 -90 0 -90
0 0 50 0 50 90 0 90 0 0 -50z m-490 -150 l0 -50 -90 0 -90 0 0 50 0 50 90 0
90 0 0 -50z m490 0 l0 -50 -90 0 -90 0 0 50 0 50 90 0 90 0 0 -50z m-490 -149
l0 -50 -90 -3 -90 -3 0 53 0 52 90 0 90 0 0 -49z m250 -1 l0 -50 -95 0 -95 0
0 50 0 50 95 0 95 0 0 -50z m240 0 l0 -50 -90 0 -90 0 0 45 0 44 83 4 c45 1
85 4 90 5 4 1 7 -20 7 -48z m-730 -160 l0 -50 -94 0 -94 0 -4 50 -3 50 98 0
97 0 0 -50z m240 3 l0 -48 -90 0 -90 0 0 48 0 47 90 0 90 0 0 -47z m250 -3 l0
-50 -95 0 -95 0 0 50 0 50 95 0 95 0 0 -50z m240 -1 c0 -43 -3 -50 -16 -45 -9
3 -49 6 -90 6 l-74 0 0 45 0 45 90 0 90 0 0 -51z m-730 -149 l0 -50 -95 0 -95
0 0 50 0 50 95 0 95 0 0 -50z m240 0 l0 -50 -90 0 -90 0 0 50 0 50 90 0 90 0
0 -50z m250 0 l0 -50 -95 0 -95 0 0 50 0 50 95 0 95 0 0 -50z m240 0 l0 -50
-90 0 -90 0 0 50 0 50 90 0 90 0 0 -50z m-732 -152 l3 -48 -95 0 -96 0 0 50 0
51 93 -3 92 -3 3 -47z m242 2 l0 -50 -90 0 -90 0 0 50 0 50 90 0 90 0 0 -50z
m250 0 l0 -50 -95 0 -95 0 0 43 c0 24 3 47 7 50 3 4 46 7 95 7 l88 0 0 -50z
m240 0 l0 -50 -90 0 -90 0 0 50 0 50 90 0 90 0 0 -50z"/>
<path d="M14345 9018 c-51 -19 -82 -46 -104 -91 -92 -191 156 -353 296 -194
53 60 57 145 9 217 -40 61 -135 93 -201 68z"/>
<path d="M15925 7415 l0 -305 568 0 567 0 0 305 0 305 -567 0 -568 0 0 -305z
m935 205 c0 -20 -7 -20 -424 -20 -366 0 -425 2 -430 15 -5 13 48 15 422 18
235 1 428 3 430 5 1 1 2 -7 2 -18z m-440 -85 c0 -13 -29 -15 -205 -15 -176 0
-205 2 -205 15 0 13 29 15 205 15 176 0 205 -2 205 -15z m110 -80 c0 -13 -36
-15 -260 -15 -224 0 -260 2 -260 15 0 13 36 15 260 15 224 0 260 -2 260 -15z
m-330 -80 c0 -12 -17 -15 -95 -15 -78 0 -95 3 -95 15 0 12 17 15 95 15 78 0
95 -3 95 -15z m-60 -80 c0 -12 -14 -15 -65 -15 -51 0 -65 3 -65 15 0 12 14 15
65 15 51 0 65 -3 65 -15z"/>
<path d="M12560 6895 l0 -25 275 0 275 0 0 25 0 25 -275 0 -275 0 0 -25z"/>
<path d="M12560 6800 l0 -30 275 0 275 0 0 30 0 30 -275 0 -275 0 0 -30z"/>
<path d="M12560 6705 l0 -25 275 0 275 0 0 25 0 25 -275 0 -275 0 0 -25z"/>
<path d="M12560 6605 l0 -25 275 0 275 0 0 25 0 25 -275 0 -275 0 0 -25z"/>
<path d="M12560 6505 l0 -25 275 0 275 0 0 25 0 25 -275 0 -275 0 0 -25z"/>
<path d="M12560 6415 l0 -25 275 0 275 0 0 25 0 25 -275 0 -275 0 0 -25z"/>
<path d="M12560 6315 l0 -25 275 0 275 0 0 25 0 25 -275 0 -275 0 0 -25z"/>
<path d="M12560 6215 l0 -25 173 0 c96 0 176 3 179 6 3 3 4 14 1 25 -5 18 -15
19 -179 19 l-174 0 0 -25z"/>
<path d="M9159 5671 c-24 -19 -24 -22 -27 -238 -4 -258 -1 -276 38 -300 36
-21 38 -39 7 -47 -42 -10 -47 -42 -47 -274 0 -230 5 -258 48 -277 23 -10 32
-48 10 -40 -7 2 -22 -2 -33 -11 -19 -14 -20 -29 -23 -252 -3 -230 -3 -239 18
-265 12 -15 28 -27 36 -27 24 0 15 -24 -15 -42 -40 -22 -43 -43 -39 -300 3
-193 5 -219 21 -235 17 -17 128 -18 2362 -21 2336 -2 2345 -2 2365 18 19 19
20 33 20 265 0 232 -1 246 -20 265 -11 11 -31 20 -45 20 -16 0 -25 6 -25 15 0
10 10 15 28 15 59 0 62 12 62 282 0 225 -2 246 -18 261 -17 16 -110 17 -1130
17 -982 0 -1112 2 -1112 15 0 9 9 15 24 15 15 0 33 11 45 26 20 25 21 39 21
258 0 258 -4 276 -61 276 -19 0 -29 5 -29 15 0 8 9 15 20 15 12 0 32 11 45 25
l25 24 0 236 0 236 -25 24 -24 25 -1249 0 c-1215 0 -1250 -1 -1273 -19z m1644
-155 c66 -28 92 -91 64 -158 -20 -48 -58 -71 -114 -71 -40 0 -50 4 -80 36 -26
29 -33 45 -33 77 0 54 24 98 63 115 41 18 60 18 100 1z m-305 -108 l3 -68 -69
0 -69 0 -2 60 c-1 33 1 65 4 71 4 5 33 9 68 7 l62 -3 3 -67z m315 -490 c30
-16 41 -28 56 -65 20 -48 7 -96 -35 -132 -42 -37 -91 -41 -140 -10 -44 27 -54
47 -54 105 0 41 5 51 36 80 28 27 44 34 75 34 22 0 50 -5 62 -12z m-313 -108
l0 -71 -67 3 -68 3 -3 68 -3 67 71 0 70 0 0 -70z m334 -501 c93 -81 34 -216
-88 -206 -68 6 -106 47 -106 113 0 109 114 164 194 93z m2156 16 c43 -22 60
-53 60 -108 0 -42 -5 -54 -34 -83 -29 -29 -41 -34 -80 -34 -89 0 -149 89 -112
166 30 64 105 90 166 59z m-2490 -105 l0 -70 -70 0 -70 0 0 63 c0 35 3 67 7
70 3 4 35 7 70 7 l63 0 0 -70z m2180 0 l0 -70 -70 0 -70 0 0 70 0 70 70 0 70
0 0 -70z m-1849 -501 c54 -38 63 -127 18 -175 -108 -115 -282 42 -179 160 44
50 104 55 161 15z m2128 25 c18 -4 45 -20 62 -36 25 -26 29 -37 29 -85 0 -46
-4 -59 -28 -82 -56 -56 -151 -46 -192 21 -38 59 -11 146 53 173 38 17 36 17
76 9z m-2461 -122 l3 -73 -68 3 -68 3 -3 59 c-4 85 -3 87 70 84 l63 -3 3 -73z
m2180 1 l3 -73 -71 0 -70 0 0 68 c0 38 3 72 7 76 4 4 34 6 68 4 l60 -3 3 -72z"/>
<path d="M10722 5454 c-15 -10 -22 -25 -22 -48 0 -42 15 -56 62 -56 31 0 41 5
50 25 19 42 -14 94 -62 95 -3 0 -16 -7 -28 -16z"/>
<path d="M10712 4858 c-7 -7 -12 -27 -12 -45 0 -24 7 -37 26 -49 53 -35 109
17 85 79 -9 23 -16 27 -49 27 -21 0 -43 -5 -50 -12z"/>
<path d="M10722 4264 c-45 -31 -17 -104 41 -104 28 0 57 32 57 62 0 23 -35 58
-58 58 -10 0 -28 -7 -40 -16z"/>
<path d="M12892 4260 c-41 -39 -16 -100 42 -100 40 0 56 15 56 55 0 59 -56 84
-98 45z"/>
<path d="M10722 3674 c-33 -23 -28 -82 10 -103 25 -14 29 -14 55 5 15 12 29
32 30 45 6 51 -53 83 -95 53z"/>
<path d="M12895 3665 c-30 -29 -31 -45 -7 -75 21 -26 66 -30 89 -7 23 23 19
68 -7 89 -30 24 -46 23 -75 -7z"/>
<path d="M6573 4513 c9 -2 23 -2 30 0 6 3 -1 5 -18 5 -16 0 -22 -2 -12 -5z"/>
<path d="M6474 4494 c7 -7 21 -8 40 -3 44 13 42 18 -6 16 -32 -1 -41 -5 -34
-13z"/>
<path d="M6550 4490 c-11 -7 -5 -8 20 -4 43 8 51 14 19 14 -13 0 -31 -5 -39
-10z"/>
<path d="M5041 4454 c0 -11 3 -14 6 -6 3 7 2 16 -1 19 -3 4 -6 -2 -5 -13z"/>
<path d="M4782 4425 c0 -16 2 -22 5 -12 2 9 2 23 0 30 -3 6 -5 -1 -5 -18z"/>
<path d="M6665 4440 c3 -5 8 -10 11 -10 2 0 4 5 4 10 0 6 -5 10 -11 10 -5 0
-7 -4 -4 -10z"/>
<path d="M5046 4404 c-4 -14 -5 -28 -3 -31 3 -2 8 8 11 23 4 14 5 28 3 31 -3
2 -8 -8 -11 -23z"/>
<path d="M6655 4408 c3 -16 0 -28 -8 -31 -6 -2 -10 -7 -7 -9 3 -3 12 -3 21 1
14 5 14 10 2 36 -13 29 -14 29 -8 3z"/>
<path d="M6457 4380 c-10 -35 -10 -36 15 -37 13 -1 18 1 11 5 -6 4 -13 18 -15
32 l-3 25 -8 -25z"/>
<path d="M6538 4393 c7 -3 16 -2 19 1 4 3 -2 6 -13 5 -11 0 -14 -3 -6 -6z"/>
<path d="M6539 4368 c37 -5 68 -5 73 0 5 5 -21 9 -64 9 l-73 0 64 -9z"/>
<path d="M5052 4305 c0 -16 2 -22 5 -12 2 9 2 23 0 30 -3 6 -5 -1 -5 -18z"/>
<path d="M4850 4300 l-35 -6 29 -9 c18 -5 31 -4 35 3 3 6 24 12 46 15 l40 4
-40 0 c-22 0 -56 -3 -75 -7z"/>
<path d="M4933 4283 c20 -2 54 -2 75 0 20 2 3 4 -38 4 -41 0 -58 -2 -37 -4z"/>
<path d="M6504 4163 c-12 -2 -40 -20 -62 -39 -33 -28 -43 -45 -52 -88 -18 -86
-28 -302 -23 -459 5 -130 8 -147 23 -147 16 0 18 18 25 170 4 94 11 173 16
176 25 15 77 -77 99 -176 26 -114 80 -179 175 -211 55 -19 400 -20 433 -1 12
7 22 17 22 22 0 17 -54 59 -115 89 -55 27 -65 37 -103 104 -63 109 -128 306
-156 469 -7 36 -9 38 -74 57 -128 38 -161 43 -208 34z"/>
<path d="M4785 4121 c-71 -32 -91 -66 -104 -178 -12 -110 -17 -264 -13 -430 2
-106 3 -113 22 -113 18 0 20 7 21 78 1 113 13 259 21 268 21 20 76 -79 98
-176 26 -112 77 -177 165 -207 40 -14 83 -18 215 -18 179 0 235 7 244 31 8 21
-30 54 -100 88 -32 16 -66 38 -76 50 -59 71 -142 284 -179 463 -11 54 -23 101
-27 104 -8 8 -213 59 -233 59 -8 0 -32 -9 -54 -19z"/>
</g>
</svg>
