<?xml version="1.0" standalone="no"?>
<!DOCTYPE svg PUBLIC "-//W3C//DTD SVG 20010904//EN"
 "http://www.w3.org/TR/2001/REC-SVG-20010904/DTD/svg10.dtd">
<svg version="1.0" xmlns="http://www.w3.org/2000/svg"
 width="2000.000000pt" height="2000.000000pt" viewBox="0 0 2000.000000 2000.000000"
 preserveAspectRatio="xMidYMid meet">

<g transform="translate(0.000000,2000.000000) scale(0.100000,-0.100000)"
fill="#000000" stroke="none">
<path d="M8677 18319 c-148 -35 -262 -143 -308 -290 -17 -56 -19 -97 -19 -493
0 -467 3 -502 55 -591 36 -60 126 -142 188 -170 85 -39 143 -45 426 -43 242 1
253 2 126 9 -77 3 -206 7 -286 8 -116 1 -160 5 -210 21 -119 37 -220 138 -259
259 -20 64 -21 81 -18 521 l3 455 34 69 c56 115 147 190 268 221 53 14 126 16
500 13 423 -3 440 -4 491 -25 102 -42 194 -133 235 -233 22 -54 22 -62 22
-525 0 -469 0 -470 -23 -528 -30 -73 -112 -163 -189 -206 -32 -17 -47 -29 -33
-25 40 11 127 72 164 116 47 54 83 135 96 210 14 87 13 832 -1 900 -28 136
-130 255 -269 314 -42 18 -76 19 -500 21 -250 1 -472 -3 -493 -8z"/>
<path d="M11020 18136 c-120 -25 -238 -114 -291 -217 -49 -97 -49 -96 -49
-990 0 -518 4 -857 10 -890 22 -120 106 -236 212 -294 96 -52 120 -55 555 -55
l403 0 6 -24 c7 -28 50 -71 82 -81 l22 -6 0 -650 c0 -426 3 -649 10 -649 7 0
10 223 10 650 l0 650 34 14 c36 15 66 50 66 78 0 16 15 18 173 20 l172 2 -170
6 c-167 5 -170 5 -173 27 -4 31 -55 79 -88 86 -59 11 -127 -30 -139 -83 l-6
-28 -392 4 c-216 3 -410 7 -433 10 -99 12 -220 97 -277 195 -58 99 -58 87 -55
1030 l3 864 24 58 c44 111 145 207 254 244 48 16 124 18 887 21 524 2 859 -1
900 -7 166 -26 302 -152 340 -313 6 -27 10 -372 10 -904 0 -956 3 -914 -68
-1017 -33 -49 -80 -95 -138 -135 -11 -7 1 -3 24 10 98 51 178 180 193 311 4
40 8 437 9 882 0 884 1 871 -57 978 -34 61 -117 138 -186 171 -28 14 -81 30
-117 36 -97 15 -1688 12 -1760 -4z"/>
<path d="M9075 17894 c-45 -23 -66 -45 -86 -89 -38 -82 -16 -182 51 -239 28
-23 29 -27 13 -31 -48 -15 -126 -61 -150 -89 -40 -48 -74 -131 -80 -197 l-6
-59 333 0 333 0 -6 53 c-7 70 -40 154 -78 200 -30 37 -113 87 -144 87 -22 0
-18 16 9 33 72 47 88 201 30 274 -17 21 -46 46 -65 55 -42 22 -114 23 -154 2z"/>
<path d="M11747 17489 c-212 -31 -371 -221 -369 -443 1 -194 117 -354 303
-416 53 -18 81 -21 159 -18 82 3 105 8 164 36 l70 33 27 -28 c14 -15 82 -89
150 -163 132 -145 159 -165 186 -137 13 13 14 21 6 39 -10 21 -102 124 -249
280 -30 31 -54 59 -54 63 0 3 13 23 30 43 16 20 42 64 57 97 26 55 28 70 28
175 0 109 -2 119 -32 182 -34 73 -105 156 -165 194 -83 53 -209 78 -311 63z
m129 -80 c122 -22 221 -98 273 -208 22 -48 26 -69 26 -151 0 -82 -4 -103 -27
-152 -33 -71 -106 -143 -178 -177 -48 -23 -68 -26 -155 -26 -95 0 -103 2 -163
34 -304 165 -241 602 98 677 30 7 58 13 61 13 3 1 32 -4 65 -10z"/>
<path d="M14035 17304 c-164 -37 -300 -172 -334 -332 -14 -69 -15 -1680 -1
-1767 21 -131 113 -252 234 -309 90 -43 175 -49 553 -42 l342 7 6 -33 c17 -86
107 -124 182 -78 24 15 36 32 45 65 l12 45 211 3 210 2 -215 3 -215 2 -12 28
c-36 80 -170 81 -204 0 l-11 -28 -388 0 c-356 0 -393 2 -451 19 -115 36 -206
119 -257 236 l-27 60 -3 855 c-2 613 0 872 8 915 30 153 148 281 295 320 89
23 1721 23 1810 0 124 -32 229 -125 277 -243 l23 -57 3 -880 c2 -653 0 -892
-9 -925 -19 -71 -65 -145 -127 -201 -31 -28 -46 -46 -33 -39 83 43 165 179
181 300 5 43 10 425 10 885 0 697 -2 819 -15 870 -34 129 -110 222 -233 282
l-76 38 -885 1 c-488 1 -895 0 -906 -2z"/>
<path d="M9628 16753 c7 -3 16 -2 19 1 4 3 -2 6 -13 5 -11 0 -14 -3 -6 -6z"/>
<path d="M9578 16743 c6 -2 18 -2 25 0 6 3 1 5 -13 5 -14 0 -19 -2 -12 -5z"/>
<path d="M7670 16077 c-77 -22 -139 -59 -196 -119 -65 -68 -99 -137 -114 -233
-13 -80 -12 -1578 1 -1709 17 -171 123 -302 293 -362 34 -12 145 -15 664 -14
620 0 622 0 622 -20 0 -38 28 -89 59 -104 74 -39 162 3 176 84 l7 39 56 4 57
3 -58 2 c-53 2 -61 5 -96 42 -31 33 -45 40 -76 40 -43 0 -101 -32 -110 -60 -6
-20 -20 -20 -605 -20 -400 0 -617 4 -652 11 -163 34 -291 169 -318 336 -13 75
-13 1637 0 1722 19 137 107 252 238 314 l67 32 900 0 900 0 57 -27 c80 -37
124 -73 174 -140 74 -101 72 -76 78 -1013 4 -521 2 -852 -4 -890 -15 -91 -60
-174 -132 -241 -35 -31 -52 -51 -38 -44 43 23 116 106 143 163 14 30 30 81 36
113 7 38 11 342 11 900 0 810 -1 844 -20 906 -37 121 -130 222 -250 271 l-55
22 -885 2 c-678 1 -896 -1 -930 -10z"/>
<path d="M15890 14900 c-9 -6 -10 -10 -3 -10 6 0 15 5 18 10 8 12 4 12 -15 0z"/>
<path d="M4925 14363 c-335 -29 -606 -248 -633 -511 l-7 -64 -51 -18 c-82 -28
-144 -69 -212 -138 -62 -64 -122 -169 -137 -238 -6 -30 -8 -32 -69 -38 -210
-21 -430 -162 -554 -355 -51 -78 -130 -266 -148 -350 -28 -132 -15 -232 52
-393 86 -210 51 -285 -161 -343 -116 -32 -167 -60 -226 -122 -102 -108 -132
-242 -90 -396 37 -134 29 -170 -63 -281 -98 -119 -136 -214 -136 -346 0 -130
40 -235 123 -326 87 -96 190 -147 334 -164 167 -20 209 -47 307 -197 78 -120
166 -180 299 -204 82 -15 181 0 246 37 l43 24 18 -23 c29 -36 112 -76 179 -85
36 -5 64 -5 67 0 7 11 -6 569 -13 581 -3 5 11 22 31 39 112 92 154 255 97 383
-34 77 -150 155 -230 155 -42 0 -106 -27 -156 -66 l-34 -26 -35 21 c-79 49
-137 146 -155 261 -46 287 76 472 310 471 82 0 130 -19 175 -68 38 -41 93 -56
154 -40 47 12 105 70 137 136 54 116 78 337 52 488 l-11 64 114 117 c63 64
129 139 147 165 77 113 136 333 143 530 1 42 4 77 5 77 2 0 26 -11 53 -25 124
-63 272 -71 454 -25 192 49 284 38 350 -41 15 -18 48 -73 73 -123 69 -139 95
-170 160 -203 57 -27 61 -28 193 -24 379 12 378 13 408 -92 31 -110 40 -166
62 -382 45 -447 63 -752 64 -1105 1 -378 -5 -455 -55 -650 -73 -284 -225 -501
-463 -660 l-49 -33 40 -12 c22 -7 83 -35 135 -63 110 -60 186 -82 280 -82 218
0 380 102 498 314 65 116 117 178 174 209 38 21 54 22 236 22 191 0 196 1 253
27 115 54 210 171 243 299 25 96 14 168 -42 297 -39 90 -47 118 -47 172 -1 76
14 111 103 235 103 143 130 222 130 382 0 120 -17 191 -71 302 -75 152 -183
239 -404 324 -218 83 -303 149 -366 282 -40 86 -54 145 -94 411 -14 94 -37
211 -51 260 -82 285 -248 490 -464 573 -62 24 -76 26 -280 27 -320 2 -338 9
-558 241 -75 80 -166 167 -202 194 -130 98 -305 167 -476 188 -87 11 -117 11
-199 4z"/>
<path d="M16693 14359 c-169 -28 -310 -170 -342 -343 -7 -37 -11 -207 -11
-438 0 -377 0 -378 -21 -378 -25 0 -89 -61 -89 -84 0 -14 -42 -16 -420 -16
-273 0 -420 -3 -420 -10 0 -7 146 -10 418 -10 l417 0 17 -41 c13 -31 26 -44
57 -57 l41 -17 0 -315 c0 -173 4 -343 9 -377 24 -166 150 -305 315 -349 41
-11 189 -13 771 -12 l720 1 -665 8 c-843 9 -810 8 -891 46 -116 54 -205 169
-229 294 -6 29 -10 199 -10 379 l0 328 31 12 c64 27 90 121 48 174 -11 14 -34
33 -50 42 l-30 15 3 402 c3 384 4 405 25 460 44 116 134 206 250 250 l58 22
880 0 880 0 58 -23 c116 -47 212 -147 246 -256 19 -63 20 -96 22 -935 1 -806
0 -873 -16 -923 -21 -60 -50 -110 -102 -171 -24 -28 -19 -25 15 10 60 63 97
137 111 224 15 92 15 1690 0 1761 -36 167 -179 301 -349 328 -80 12 -1672 12
-1747 -1z"/>
<path d="M13045 14165 c-28 -27 -30 -42 -14 -78 32 -69 139 -48 139 28 0 67
-78 98 -125 50z"/>
<path d="M11070 13302 c0 -384 3 -930 7 -1212 l6 -513 1381 7 c760 4 1577 8
1816 9 239 1 -379 4 -1375 7 l-1810 5 -3 245 c-2 135 0 669 4 1188 l6 942
1999 0 1999 0 0 -631 c0 -417 3 -628 10 -624 6 4 10 228 10 641 l0 634 -2025
0 -2025 0 0 -698z"/>
<path d="M9570 13690 c-9 -6 -10 -10 -3 -10 6 0 15 5 18 10 8 12 4 12 -15 0z"/>
<path d="M9520 13670 c-8 -5 -10 -10 -5 -10 6 0 17 5 25 10 8 5 11 10 5 10 -5
0 -17 -5 -25 -10z"/>
<path d="M9478 13653 c7 -3 16 -2 19 1 4 3 -2 6 -13 5 -11 0 -14 -3 -6 -6z"/>
<path d="M9006 13180 c-4 -129 -6 -305 -5 -390 4 -152 5 -157 37 -222 21 -43
48 -80 76 -103 82 -67 56 -65 800 -64 369 0 689 4 711 8 23 5 -265 9 -666 10
-773 1 -757 0 -830 61 -20 15 -51 57 -70 92 l-34 63 -5 390 -5 390 -9 -235z"/>
<path d="M11813 13029 c-56 -16 -88 -79 -67 -134 8 -21 46 -39 112 -55 39 -9
52 -16 52 -30 0 -27 -48 -34 -101 -16 -40 14 -45 14 -56 -1 -35 -46 5 -73 109
-73 92 0 138 32 138 97 0 45 -21 64 -96 88 -53 17 -69 27 -69 41 0 24 42 30
88 14 27 -9 34 -8 44 7 23 31 15 51 -24 62 -45 13 -86 13 -130 0z"/>
<path d="M12135 13030 c-127 -42 -148 -212 -35 -287 40 -28 132 -31 183 -7
108 51 111 225 6 280 -38 19 -115 26 -154 14z m125 -97 c43 -55 7 -143 -59
-143 -60 0 -100 58 -81 116 14 41 33 53 82 54 28 0 41 -6 58 -27z"/>
<path d="M12420 12875 l0 -155 39 0 40 0 3 53 3 52 68 3 67 3 0 34 0 35 -70 0
-70 0 0 30 0 30 80 0 80 0 0 35 0 35 -120 0 -120 0 0 -155z"/>
<path d="M12670 12995 l0 -35 50 0 50 0 0 -120 0 -120 45 0 45 0 0 120 0 120
45 0 c44 0 45 1 46 33 0 21 17 -18 50 -120 l50 -153 47 0 48 0 30 93 31 92 29
-93 29 -92 49 2 48 3 49 150 c27 83 49 151 49 153 0 1 -19 2 -43 2 l-42 0 -31
-97 -31 -98 -30 95 -29 95 -44 0 -43 0 -32 -94 -31 -95 -30 95 -30 94 -187 3
-187 2 0 -35z"/>
<path d="M13561 12988 c-10 -24 -39 -90 -65 -147 -25 -57 -46 -107 -46 -112 0
-5 19 -9 43 -9 38 0 44 3 54 30 11 29 13 30 78 30 64 0 66 -1 76 -30 10 -27
15 -30 55 -30 24 0 44 4 44 8 0 5 -29 73 -65 153 l-64 144 -46 3 c-45 3 -45 3
-64 -40z m98 -130 c1 -5 -15 -8 -34 -8 -19 0 -35 2 -35 5 0 2 8 24 17 47 l17
42 17 -40 c10 -21 18 -42 18 -46z"/>
<path d="M13830 12875 l0 -155 45 0 45 0 0 40 c0 35 3 40 24 40 16 0 31 -12
50 -40 24 -37 30 -40 71 -40 25 0 45 3 45 6 0 3 -13 25 -30 48 l-29 43 24 23
c50 47 41 135 -19 171 -25 15 -51 19 -128 19 l-98 0 0 -155z m178 73 c32 -32
0 -78 -54 -78 -34 0 -34 0 -34 45 l0 45 38 0 c21 0 43 -5 50 -12z"/>
<path d="M14160 12875 l0 -155 125 0 125 0 0 35 0 35 -86 0 -85 0 3 28 c3 26
5 27 71 30 67 3 67 3 67 32 l0 30 -70 0 c-68 0 -70 1 -70 25 0 25 1 25 80 25
l80 0 0 35 0 35 -120 0 -120 0 0 -155z"/>
<path d="M11670 12500 c0 -143 1 -150 20 -150 19 0 20 7 20 150 0 143 -1 150
-20 150 -19 0 -20 -7 -20 -150z"/>
<path d="M11800 12501 c0 -143 1 -151 20 -151 18 0 20 8 22 107 l3 107 85
-107 c117 -147 120 -146 120 43 0 143 -1 150 -20 150 -18 0 -20 -8 -22 -108
l-3 -109 -86 106 c-47 58 -93 107 -102 109 -15 3 -17 -12 -17 -147z"/>
<path d="M12100 12630 c0 -17 7 -20 50 -20 l50 0 0 -130 c0 -123 1 -130 20
-130 19 0 20 7 20 130 l0 130 50 0 c43 0 50 3 50 20 0 19 -7 20 -120 20 -113
0 -120 -1 -120 -20z"/>
<path d="M12390 12500 l0 -150 105 0 c98 0 105 1 105 20 0 18 -7 20 -85 20
l-85 0 0 45 0 45 75 0 c68 0 75 2 75 20 0 18 -7 20 -75 20 l-75 0 0 45 0 45
86 0 c76 0 85 2 82 18 -3 15 -17 17 -106 20 l-102 3 0 -151z"/>
<path d="M12746 12640 c-86 -27 -125 -145 -76 -225 37 -60 136 -83 215 -51 34
15 35 16 35 75 0 54 -2 61 -20 61 -17 0 -20 -7 -20 -44 0 -54 -17 -69 -73 -69
-78 0 -126 55 -114 130 13 75 97 114 168 79 28 -14 35 -14 47 -3 31 32 -94 69
-162 47z"/>
<path d="M13000 12500 c0 -143 1 -150 20 -150 17 0 20 7 20 45 l0 45 44 0 c42
0 47 -3 77 -45 23 -32 39 -45 57 -45 l24 0 -34 48 -34 47 28 23 c24 20 28 31
28 73 0 81 -48 109 -186 109 l-44 0 0 -150z m153 99 c28 -15 37 -28 37 -58 0
-43 -27 -61 -92 -61 l-58 0 0 65 0 65 46 0 c25 0 55 -5 67 -11z"/>
<path d="M13329 12508 c-35 -78 -65 -146 -67 -150 -2 -4 7 -8 20 -8 18 0 27 8
37 35 l12 35 80 0 79 0 17 -35 c12 -25 23 -35 39 -35 l23 0 -31 68 c-93 206
-107 232 -126 232 -14 0 -33 -33 -83 -142z m138 -45 c-3 -2 -29 -3 -59 -1
l-55 3 30 65 30 65 29 -64 c16 -35 27 -65 25 -68z"/>
<path d="M13557 12643 c-20 -19 -4 -32 46 -35 l52 -3 3 -127 c2 -120 4 -128
22 -128 19 0 20 7 20 130 l0 130 50 0 c43 0 50 3 50 20 0 19 -7 20 -118 20
-65 0 -122 -3 -125 -7z"/>
<path d="M13850 12501 c0 -145 1 -151 20 -151 20 0 20 5 18 147 -3 131 -5 148
-20 151 -17 3 -18 -9 -18 -147z"/>
<path d="M14045 12636 c-116 -50 -124 -214 -15 -271 42 -22 128 -19 168 5 45
28 76 97 67 151 -17 97 -128 155 -220 115z m147 -65 c55 -62 29 -159 -48 -180
-78 -21 -150 33 -148 111 1 35 8 48 39 76 34 31 41 34 83 29 35 -4 53 -12 74
-36z"/>
<path d="M14330 12500 c0 -143 1 -150 20 -150 19 0 20 7 20 105 0 58 3 105 8
104 4 0 43 -47 87 -104 111 -145 115 -143 115 46 0 138 -1 150 -17 147 -15 -3
-19 -19 -23 -108 l-5 -105 -40 50 c-88 111 -138 165 -151 165 -11 0 -14 -28
-14 -150z"/>
<path d="M6088 12536 c-70 -25 -129 -80 -114 -104 6 -11 392 -9 402 1 15 14
-17 57 -62 83 -56 33 -166 43 -226 20z"/>
<path d="M4988 12514 c-104 -25 -208 -93 -208 -136 0 -24 44 -24 152 1 46 11
146 27 222 35 77 8 144 20 149 25 26 26 -31 64 -124 81 -68 13 -121 11 -191
-6z"/>
<path d="M6128 12124 c-52 -18 -128 -77 -128 -100 0 -18 -4 -19 76 13 88 34
199 37 292 9 34 -11 65 -16 69 -13 10 11 -37 57 -82 80 -54 27 -164 33 -227
11z"/>
<path d="M5650 12065 c0 -34 110 -311 256 -647 77 -177 93 -221 84 -237 -10
-19 -21 -23 -177 -52 -35 -6 -63 -16 -63 -21 0 -9 40 -7 189 8 65 7 101 37
101 85 0 45 -211 542 -336 792 -44 87 -54 100 -54 72z"/>
<path d="M4987 12056 c-64 -18 -155 -92 -136 -111 3 -3 37 7 75 21 88 34 191
38 282 10 68 -21 79 -19 62 13 -31 59 -184 95 -283 67z"/>
<path d="M18575 11975 c-22 -14 -36 -25 -31 -25 10 0 76 40 76 46 0 6 -2 5
-45 -21z"/>
<path d="M18495 11940 c-13 -6 -15 -9 -5 -9 8 0 22 4 30 9 18 12 2 12 -25 0z"/>
<path d="M6123 11699 c-74 -21 -97 -111 -45 -171 25 -27 36 -31 76 -31 79 0
130 66 106 138 -18 54 -76 81 -137 64z"/>
<path d="M5054 11661 c-36 -16 -64 -60 -64 -103 0 -56 45 -98 104 -98 137 0
155 191 19 206 -21 2 -48 0 -59 -5z"/>
<path d="M8630 11589 c-109 -21 -239 -118 -289 -217 -49 -96 -51 -121 -51
-672 0 -329 4 -538 11 -575 30 -162 160 -297 320 -334 27 -7 229 -10 524 -9
l480 2 -490 6 c-542 7 -538 6 -640 74 -56 37 -111 98 -140 156 -43 84 -45 112
-45 667 0 492 1 536 19 592 49 157 163 261 321 291 70 13 1030 13 1101 0 137
-26 263 -128 310 -251 l24 -64 0 -580 0 -580 -27 -57 c-15 -32 -39 -74 -54
-93 -34 -46 -112 -102 -172 -126 -26 -10 -40 -18 -31 -19 9 0 43 14 77 31 113
56 204 183 222 310 14 95 13 1056 -1 1121 -35 165 -172 296 -343 327 -72 13
-1059 13 -1126 0z"/>
<path d="M11025 11381 c7 -12 3908 -13 4070 -2 61 4 -832 9 -1983 9 -1293 1
-2091 -2 -2087 -7z"/>
<path d="M11077 11188 c-9 -7 -32 -56 -51 -109 -47 -131 -47 -132 110 -130 89
1 122 5 130 16 6 8 21 57 35 110 23 95 24 97 4 111 -25 18 -204 20 -228 2z"/>
<path d="M11378 11188 c-19 -15 -73 -201 -65 -223 5 -13 30 -15 157 -15 173 0
157 -9 185 113 20 90 19 114 -4 127 -29 15 -253 13 -273 -2z"/>
<path d="M11722 11188 c-14 -18 -55 -206 -48 -223 4 -12 33 -15 155 -15 l149
0 6 28 c19 96 26 194 15 208 -16 19 -261 20 -277 2z"/>
<path d="M12052 11188 c-12 -16 -36 -213 -27 -227 4 -7 61 -11 159 -11 l153 0
7 46 c3 26 6 79 6 119 0 57 -3 74 -16 79 -32 12 -271 7 -282 -6z"/>
<path d="M12401 11191 c-11 -7 -16 -39 -19 -125 l-5 -116 169 2 169 3 -1 113
c-1 86 -4 116 -15 123 -18 11 -280 11 -298 0z"/>
<path d="M12763 11193 c-14 -5 -19 -196 -7 -227 5 -14 28 -16 154 -16 92 0
151 4 155 10 12 20 -7 210 -22 226 -11 11 -43 14 -141 13 -70 0 -133 -3 -139
-6z"/>
<path d="M13101 11191 c-10 -7 -12 -29 -6 -107 4 -55 12 -107 17 -116 8 -16
27 -18 174 -18 133 0 166 3 170 14 9 23 -24 218 -38 227 -17 11 -299 11 -317
0z"/>
<path d="M13481 11191 c-12 -8 -13 -24 -1 -113 7 -56 17 -109 23 -115 7 -9 50
-13 154 -13 120 0 145 3 149 15 7 18 -34 204 -48 223 -12 14 -254 17 -277 3z"/>
<path d="M13820 11190 c-12 -7 -12 -19 -1 -87 7 -43 18 -94 25 -113 l11 -35
158 -3 c127 -2 158 0 163 11 7 19 -53 219 -69 229 -17 11 -269 10 -287 -2z"/>
<path d="M14173 11193 c-19 -7 -15 -38 20 -143 l32 -95 141 -3 c112 -2 144 0
153 12 9 11 4 35 -25 112 -20 55 -43 105 -52 112 -16 12 -241 17 -269 5z"/>
<path d="M14511 11191 c-18 -11 -10 -52 32 -156 l32 -80 253 -3 c221 -2 253 0
258 13 7 16 -47 172 -72 213 -14 22 -16 22 -252 22 -130 0 -243 -4 -251 -9z"/>
<path d="M16791 11170 c-149 -54 -256 -184 -281 -340 -11 -71 -12 -501 -1
-895 l6 -250 33 -67 c41 -83 117 -159 202 -201 l65 -32 530 0 530 -1 -515 6
c-327 4 -526 10 -545 17 -100 35 -202 120 -244 201 -47 93 -51 135 -51 657 0
293 4 516 11 555 22 137 106 253 228 313 l66 32 585 0 585 0 58 -23 c79 -32
168 -116 208 -197 43 -87 48 -168 49 -725 0 -486 -3 -517 -51 -612 -33 -65
-115 -145 -183 -179 -34 -16 -50 -27 -36 -23 73 19 160 87 211 166 70 109 70
114 67 743 l-3 560 -32 67 c-36 76 -105 156 -167 192 -95 55 -102 56 -710 56
-531 -1 -564 -2 -615 -20z"/>
<path d="M5386 10985 c-18 -69 33 -180 108 -236 59 -44 121 -64 196 -63 52 1
108 19 96 31 -2 3 -37 11 -77 19 -39 7 -91 23 -114 34 -65 32 -129 101 -160
175 -16 36 -31 65 -35 65 -4 0 -11 -11 -14 -25z"/>
<path d="M10978 10898 c-21 -18 -92 -213 -85 -232 6 -14 44 -16 330 -16 248 0
327 3 335 13 5 6 20 58 32 114 19 84 21 105 10 118 -11 13 -54 15 -309 15
-223 0 -301 -3 -313 -12z"/>
<path d="M13650 10902 c-68 -1 -129 -7 -133 -11 -9 -9 10 -179 24 -219 9 -22
10 -22 166 -20 l158 3 -1 45 c0 25 -9 79 -18 121 -21 91 -8 85 -196 81z"/>
<path d="M11645 10878 c-2 -13 -13 -62 -25 -110 -11 -48 -17 -94 -14 -103 5
-13 32 -15 164 -15 114 0 160 3 167 13 13 16 37 212 28 226 -4 7 -61 11 -160
11 -152 0 -155 0 -160 -22z"/>
<path d="M12006 10878 c-15 -69 -27 -211 -19 -219 5 -5 83 -8 174 -7 l164 3 8
110 c4 60 5 115 3 122 -4 10 -44 13 -165 13 -158 0 -161 0 -165 -22z"/>
<path d="M12376 10888 c-3 -7 -7 -59 -10 -115 -4 -77 -2 -104 8 -112 9 -8 70
-11 182 -9 l169 3 3 80 c2 44 0 99 -3 123 l-6 42 -170 0 c-127 0 -171 -3 -173
-12z"/>
<path d="M12760 10801 c0 -55 4 -111 10 -126 l10 -26 157 3 158 3 -3 85 c-2
47 -7 101 -11 120 l-7 35 -157 3 -157 3 0 -100z"/>
<path d="M13124 10788 c4 -61 11 -118 18 -125 8 -10 52 -13 180 -13 145 0 169
2 175 16 3 9 0 55 -6 102 -21 148 4 132 -199 132 l-175 0 7 -112z"/>
<path d="M13870 10878 c0 -13 11 -68 23 -123 l22 -100 166 -3 c132 -2 169 0
178 11 9 11 4 39 -21 123 l-33 109 -168 3 -167 2 0 -22z"/>
<path d="M14250 10878 c0 -27 50 -199 63 -215 7 -10 51 -13 157 -13 178 0 182
2 151 85 -12 30 -30 80 -42 110 l-20 55 -155 0 c-151 0 -154 0 -154 -22z"/>
<path d="M14608 10888 c-6 -16 70 -220 85 -230 7 -4 55 -8 108 -8 132 0 133 1
88 138 l-35 107 -121 3 c-91 2 -122 -1 -125 -10z"/>
<path d="M14900 10878 c0 -32 60 -211 74 -220 6 -4 54 -8 107 -8 133 0 134 1
79 140 l-43 110 -109 0 c-105 0 -108 -1 -108 -22z"/>
<path d="M17614 10680 c-85 -19 -146 -92 -152 -183 l-5 -59 -53 6 c-108 13
-253 86 -328 165 -17 17 -33 31 -37 31 -11 0 -22 -59 -20 -108 1 -50 18 -86
56 -125 30 -29 19 -36 -29 -17 -34 13 -39 1 -20 -52 17 -51 66 -106 107 -120
39 -14 34 -31 -8 -26 -48 6 -45 -11 13 -72 37 -38 57 -50 90 -56 53 -8 45 -21
-40 -59 -41 -18 -87 -30 -137 -34 l-76 -6 62 -28 c167 -75 354 -73 513 5 88
43 204 160 247 248 39 80 63 172 63 239 0 47 3 54 41 88 22 20 44 44 49 53 9
16 6 16 -28 4 -61 -22 -66 -16 -28 26 39 43 47 67 19 55 -10 -4 -38 -14 -61
-21 -38 -12 -46 -12 -59 1 -37 38 -118 58 -179 45z"/>
<path d="M10873 10602 c-17 -11 -94 -224 -91 -252 l3 -25 147 -3 147 -3 25 83
c41 135 50 174 43 191 -5 15 -24 17 -134 17 -70 0 -133 -4 -140 -8z"/>
<path d="M11230 10601 c-29 -5 -37 -12 -47 -43 -30 -90 -56 -206 -50 -222 6
-14 28 -16 176 -16 152 0 171 2 179 18 5 9 19 66 32 126 17 78 21 113 13 125
-8 13 -31 16 -139 17 -71 1 -145 -1 -164 -5z"/>
<path d="M11591 10597 c-6 -8 -22 -64 -36 -126 -36 -158 -44 -151 158 -151 89
0 168 4 175 8 7 5 19 59 29 130 13 98 14 124 3 137 -17 21 -311 22 -329 2z"/>
<path d="M11982 10601 c-9 -5 -20 -54 -30 -129 -13 -99 -13 -124 -2 -136 10
-13 41 -16 181 -16 115 0 170 4 175 11 4 7 9 65 12 130 3 87 1 123 -8 134 -10
12 -41 15 -164 15 -83 0 -157 -4 -164 -9z"/>
<path d="M12371 10596 c-14 -17 -27 -211 -17 -250 l6 -26 788 2 787 3 3 28 c4
29 -34 209 -50 240 -8 16 -54 17 -757 17 -633 0 -750 -2 -760 -14z"/>
<path d="M13953 10603 c-7 -2 -13 -21 -13 -41 1 -41 43 -228 54 -240 4 -4 79
-8 166 -10 171 -4 200 3 200 42 0 29 -59 227 -72 244 -8 9 -53 12 -167 11 -86
0 -162 -3 -168 -6z"/>
<path d="M14352 10598 c-7 -7 -12 -20 -12 -29 0 -32 68 -242 82 -250 7 -5 79
-9 160 -9 120 0 149 3 162 16 9 8 16 19 16 24 0 15 -82 234 -93 248 -13 17
-298 17 -315 0z"/>
<path d="M14732 10598 c-7 -7 -12 -18 -12 -25 0 -27 83 -238 98 -250 20 -16
463 -18 493 -3 10 6 19 21 19 33 0 24 -75 224 -92 244 -15 18 -488 19 -506 1z"/>
<path d="M9758 9793 c7 -3 16 -2 19 1 4 3 -2 6 -13 5 -11 0 -14 -3 -6 -6z"/>
<path d="M17988 9393 c7 -3 16 -2 19 1 4 3 -2 6 -13 5 -11 0 -14 -3 -6 -6z"/>
<path d="M15360 8923 l0 -338 -41 -17 c-31 -13 -44 -26 -56 -56 l-15 -40 -552
2 -551 1 -57 -28 c-33 -16 -70 -45 -88 -67 -63 -80 -61 -25 -58 -1145 l3
-1020 22 -41 c34 -63 66 -97 119 -124 l49 -25 1115 -1 1115 -1 -1093 7 c-825
6 -1104 11 -1138 20 -60 17 -126 77 -153 139 l-21 50 2 1018 c3 969 4 1020 22
1055 24 50 72 96 121 119 37 17 76 19 591 19 l552 0 12 -31 c26 -61 111 -87
170 -52 27 16 41 35 54 76 5 17 32 18 513 15 l508 -3 60 -30 c66 -33 117 -91
135 -153 6 -24 10 -380 10 -1042 0 -971 -1 -1006 -20 -1047 -10 -24 -17 -43
-14 -43 3 0 14 21 25 46 20 45 21 65 22 1067 l2 1022 -22 41 c-35 65 -69 100
-125 128 l-52 26 -518 0 -518 0 -16 40 c-12 29 -26 44 -55 57 l-38 18 -1 338
c0 218 -4 337 -10 337 -6 0 -10 -119 -10 -337z"/>
<path d="M6410 8902 c0 -4 7 -17 15 -28 27 -40 254 -408 329 -534 179 -303
340 -604 350 -653 2 -6 25 -57 51 -112 158 -331 311 -814 389 -1225 68 -355
90 -625 84 -989 -3 -149 -3 -270 -1 -268 2 2 10 75 18 162 11 109 14 219 11
354 -11 410 -62 748 -177 1176 -108 398 -286 839 -491 1213 -112 203 -327 555
-448 732 -24 36 -42 65 -40 65 3 0 -5 12 -18 25 -13 14 -32 40 -43 58 -20 32
-29 39 -29 24z"/>
<path d="M6028 8800 c-4 -58 -15 -249 -23 -425 -9 -176 -18 -321 -19 -323 -2
-1 -65 93 -141 210 -76 117 -141 217 -145 222 -5 4 -31 -63 -59 -149 -29 -87
-50 -160 -47 -162 3 -3 50 120 96 252 8 21 18 7 225 -321 50 -78 93 -140 96
-138 7 4 32 808 28 884 -3 44 -5 35 -11 -50z"/>
<path d="M3560 8766 c0 -1 138 -424 230 -708 l84 -258 145 0 146 0 -68 -45
c-38 -25 -72 -45 -75 -45 -4 0 -15 -6 -24 -14 -16 -11 -12 -23 47 -136 35 -68
61 -128 58 -133 -3 -6 -2 -7 3 -4 6 3 35 -45 67 -106 31 -62 87 -170 125 -242
77 -146 192 -366 277 -530 31 -60 69 -132 85 -160 15 -27 60 -113 100 -190 40
-77 116 -221 168 -320 52 -99 122 -232 155 -295 33 -63 71 -134 84 -158 13
-24 20 -49 17 -55 -4 -7 -4 -9 1 -5 4 4 13 -2 20 -15 6 -12 34 -65 62 -117 28
-52 75 -142 106 -200 30 -58 71 -136 91 -174 21 -37 60 -112 88 -165 162 -305
189 -353 195 -347 5 4 -343 695 -394 784 -22 37 -23 45 -12 60 12 15 12 15 -1
5 -16 -11 -13 -16 -495 911 -66 127 -127 245 -136 261 -9 17 -56 107 -104 200
-125 243 -215 415 -235 450 -9 17 -57 107 -105 200 -49 94 -121 232 -162 309
-40 76 -73 141 -73 145 0 3 55 40 122 81 l121 75 -189 3 -189 2 -103 303 c-56
166 -127 373 -157 460 -30 88 -53 162 -50 166 2 4 -2 8 -10 8 -8 0 -15 -1 -15
-1z"/>
<path d="M5135 8343 c-11 -94 -86 -587 -89 -591 -2 -1 -100 78 -219 176 -119
98 -244 200 -279 226 l-63 48 60 -57 c65 -62 268 -239 426 -372 97 -82 98 -82
103 -55 3 15 24 164 47 332 24 168 44 307 45 309 3 3 185 -94 342 -182 28 -16
52 -26 52 -23 0 6 -374 231 -401 241 -14 5 -18 -4 -24 -52z"/>
<path d="M7360 7963 c0 -6 25 -58 55 -115 289 -542 442 -1076 507 -1768 7 -81
12 -269 11 -470 -1 -278 -5 -381 -27 -609 -14 -151 -24 -276 -22 -278 3 -4 21
123 53 387 22 183 26 886 5 1070 -64 573 -190 1031 -403 1465 -80 165 -178
339 -179 318z"/>
<path d="M2921 7932 c0 -4 10 -21 22 -38 104 -146 198 -298 248 -399 204 -420
268 -836 203 -1330 -4 -27 -4 -47 0 -43 23 20 56 283 56 438 -1 394 -123 812
-328 1125 -67 102 -203 269 -201 247z"/>
<path d="M4830 6166 c0 -2 8 -10 18 -17 15 -13 16 -12 3 4 -13 16 -21 21 -21
13z"/>
<path d="M16625 6093 c-22 -19 -31 -31 -20 -25 19 9 74 63 64 62 -2 -1 -22
-17 -44 -37z"/>
<path d="M9226 5939 c-52 -182 -47 -398 14 -579 20 -61 40 -97 40 -74 0 5 -12
54 -26 109 -24 89 -27 119 -28 275 -1 113 4 199 13 243 16 83 8 100 -13 26z"/>
<path d="M3437 5805 c-7 -40 -55 -452 -102 -875 -14 -124 -36 -322 -50 -440
-86 -753 -116 -1050 -112 -1090 3 -25 15 -67 26 -95 11 -27 40 -106 65 -175
24 -69 94 -267 156 -440 61 -173 179 -503 261 -733 82 -230 146 -424 143 -430
-4 -7 -3 -9 1 -4 7 6 88 -197 119 -300 l7 -23 -1068 -2 c-587 -1 471 -5 2352
-9 1881 -4 5569 -4 8195 0 l4775 6 -3820 8 c-2101 4 -4523 5 -5382 2 l-1562
-6 -5 33 c-6 32 -28 271 -81 871 -14 158 -23 292 -20 297 4 6 -249 10 -689 10
l-696 0 -23 -37 c-24 -38 -24 -41 -31 -423 -3 -212 -9 -467 -13 -568 l-6 -182
-954 0 -954 0 -16 38 c-9 20 -17 44 -18 52 -1 8 -4 22 -8 30 -7 15 -83 234
-192 550 -29 85 -76 220 -105 300 -28 80 -62 177 -75 215 -13 39 -47 133 -75
210 -28 77 -105 293 -171 479 l-120 340 26 225 c13 124 54 501 90 836 36 336
74 691 86 790 44 396 60 549 56 564 -2 9 -6 -2 -10 -24z"/>
<path d="M7872 4680 c0 -14 2 -19 5 -12 2 6 2 18 0 25 -3 6 -5 1 -5 -13z"/>
</g>
</svg>
