<?xml version="1.0" standalone="no"?>
<!DOCTYPE svg PUBLIC "-//W3C//DTD SVG 20010904//EN"
 "http://www.w3.org/TR/2001/REC-SVG-20010904/DTD/svg10.dtd">
<svg version="1.0" xmlns="http://www.w3.org/2000/svg"
 width="2000.000000pt" height="2000.000000pt" viewBox="0 0 2000.000000 2000.000000"
 preserveAspectRatio="xMidYMid meet">

<g transform="translate(0.000000,2000.000000) scale(0.100000,-0.100000)"
fill="#000000" stroke="none">
<path d="M3112 17171 c-29 -10 -70 -32 -90 -48 -49 -39 -99 -124 -108 -182 -7
-44 7 -324 96 -1861 22 -371 118 -2056 215 -3745 134 -2339 179 -3082 191
-3121 31 -102 129 -197 237 -229 45 -13 620 -15 5037 -15 4440 0 4992 2 5038
15 102 31 192 132 208 234 7 39 -204 3869 -223 4054 -5 46 -9 57 -22 55 -13
-3 -15 -15 -13 -63 1 -33 52 -922 112 -1976 61 -1054 110 -1952 110 -1995 -1
-130 -60 -224 -167 -264 -53 -20 -84 -20 -4982 -20 -4618 0 -4932 1 -4982 17
-73 23 -168 116 -192 188 -14 41 -53 670 -217 3525 -110 1911 -220 3828 -245
4260 -25 432 -45 821 -45 865 1 127 51 212 155 261 l50 24 4941 0 c4590 0
4944 -1 4990 -17 72 -24 166 -121 189 -193 13 -44 41 -476 139 -2198 68 -1178
126 -2145 130 -2149 3 -4 12 -1 18 5 10 10 -1 252 -50 1110 -35 603 -90 1561
-122 2127 -33 567 -62 1047 -65 1068 -8 55 -57 146 -102 189 -21 20 -65 50
-98 65 l-60 28 -5010 2 c-4833 2 -5012 2 -5063 -16z"/>
<path d="M9116 16515 c-101 -21 -161 -42 -258 -92 -215 -110 -379 -312 -454
-559 -25 -82 -28 -103 -28 -259 0 -144 3 -182 22 -247 96 -348 333 -611 662
-735 160 -60 203 -63 802 -63 l540 0 -6 83 c-4 45 -18 280 -31 522 -15 254
-32 474 -41 520 -37 191 -127 363 -266 510 -138 146 -297 243 -493 301 -113
33 -337 42 -449 19z m407 -174 c81 -21 209 -81 286 -134 24 -17 75 -60 111
-96 181 -179 272 -412 257 -659 -8 -126 -26 -196 -84 -312 -40 -79 -62 -110
-138 -185 -101 -101 -169 -145 -288 -187 -123 -44 -258 -56 -385 -35 -188 31
-332 102 -470 232 -167 158 -259 348 -278 575 -12 144 31 327 107 457 44 74
187 218 262 262 68 40 203 88 284 101 83 13 245 4 336 -19z"/>
<path d="M9290 15850 c-17 -42 -82 -98 -146 -126 -59 -26 -59 -26 -48 -121 l7
-52 49 20 c27 11 66 30 85 44 20 13 39 22 43 20 4 -2 10 -73 14 -157 3 -84 9
-179 12 -210 l7 -58 88 0 c78 0 89 2 89 18 1 42 -32 609 -36 630 -4 20 -10 22
-78 22 -72 0 -74 -1 -86 -30z"/>
<path d="M3990 16277 c-80 -42 -112 -145 -71 -226 26 -50 82 -99 123 -106 18
-3 666 -4 1440 -3 l1407 3 28 21 c48 36 73 82 73 135 0 85 -38 144 -115 180
-38 18 -99 19 -1441 19 l-1401 0 -43 -23z"/>
<path d="M15535 16119 c-33 -11 -76 -23 -95 -26 -58 -9 -136 -39 -183 -72
-110 -75 -169 -198 -184 -380 l-6 -84 44 6 c24 4 60 9 80 13 35 6 36 6 47 -37
6 -24 16 -70 22 -101 6 -32 14 -58 17 -58 2 0 16 9 30 20 71 56 154 -13 137
-114 -10 -61 -47 -137 -84 -174 l-33 -34 6 -136 c11 -220 38 -344 117 -537 11
-28 9 -35 -29 -99 -22 -39 -39 -71 -38 -72 1 -1 39 2 84 8 l82 10 58 -45 c120
-93 227 -127 399 -127 136 0 211 12 317 50 339 124 467 493 356 1033 -47 227
-176 555 -278 705 -98 145 -269 230 -506 253 -215 21 -294 21 -360 -2z"/>
<path d="M4019 15637 c-52 -35 -79 -82 -79 -138 0 -85 38 -144 115 -180 38
-18 91 -19 1171 -19 l1131 0 43 23 c124 65 115 254 -14 317 -42 20 -56 20
-1188 20 l-1145 0 -34 -23z"/>
<path d="M15025 15510 c-6 -10 5 -17 40 -22 12 -2 21 4 23 15 3 13 -3 17 -27
17 -16 0 -33 -5 -36 -10z"/>
<path d="M15017 15312 c15 -11 21 -24 17 -37 -3 -11 2 -29 10 -40 14 -19 15
-17 16 31 0 45 -3 52 -22 58 -38 10 -44 6 -21 -12z"/>
<path d="M15023 15062 c-24 -51 -18 -64 27 -60 22 3 25 7 22 38 -4 44 -11 70
-20 70 -4 -1 -17 -22 -29 -48z"/>
<path d="M10580 14633 c-28 -26 -35 -50 -32 -99 2 -23 39 -68 62 -76 12 -4 24
-169 65 -888 l50 -883 -32 -32 c-27 -27 -33 -41 -33 -76 0 -36 6 -47 39 -79
l39 -38 46 -803 c59 -1039 51 -949 87 -949 28 0 29 1 29 53 -1 28 -22 426 -49
882 -32 559 -45 831 -38 834 6 2 21 15 34 29 41 44 22 135 -34 161 -12 6 -23
16 -23 23 0 7 -23 406 -50 886 l-51 873 30 25 c76 64 29 184 -71 184 -27 0
-46 -8 -68 -27z m91 -43 c24 -14 25 -56 1 -69 -39 -21 -81 36 -50 67 15 15 24
15 49 2z m123 -1992 c20 -28 4 -58 -29 -58 -31 0 -50 32 -35 60 14 26 45 25
64 -2z"/>
<path d="M11699 14535 c-362 -72 -655 -365 -723 -724 -21 -112 -19 -231 12
-771 l27 -455 565 0 c554 0 567 0 655 23 265 66 482 243 600 487 72 148 87
210 92 385 4 121 1 160 -16 237 -47 213 -129 361 -291 523 -163 163 -317 248
-525 291 -106 22 -296 24 -396 4z m419 -175 c308 -87 535 -315 624 -627 30
-105 32 -315 4 -413 -83 -288 -290 -488 -574 -557 -89 -21 -274 -21 -365 1
-266 63 -490 247 -606 498 -59 126 -75 202 -75 348 0 154 18 231 81 360 40 81
61 109 142 190 127 127 244 188 419 220 78 15 268 4 350 -20z"/>
<path d="M11859 13891 c-82 -17 -141 -75 -154 -152 -4 -22 -5 -42 -2 -45 2 -3
43 -7 89 -11 l85 -6 7 29 c11 44 35 64 76 64 25 0 43 -7 58 -23 47 -50 24 -98
-97 -195 -50 -41 -104 -89 -121 -108 -38 -43 -76 -119 -85 -167 l-7 -37 271 0
271 0 0 70 0 70 -140 0 c-77 0 -140 3 -140 8 0 4 33 32 72 62 39 30 86 69 104
85 117 113 92 281 -51 341 -44 18 -180 27 -236 15z"/>
<path d="M16225 12060 c-66 -4 -320 -11 -565 -14 -245 -3 -489 -9 -544 -12
l-99 -7 7 -75 c3 -42 11 -79 16 -82 7 -4 -7 -85 -39 -231 -198 -893 -528
-2445 -650 -3059 -33 -168 -124 -642 -201 -1055 -158 -841 -544 -2882 -561
-2962 -10 -50 -12 -52 -38 -47 -26 6 -27 4 -59 -98 -18 -56 -32 -108 -32 -114
0 -6 15 -17 33 -25 17 -7 59 -25 92 -39 51 -23 160 -66 409 -161 27 -11 54
-19 60 -19 6 0 36 46 67 103 l56 102 -39 17 c-44 19 -43 17 -22 83 14 47 140
480 324 1110 267 917 509 1782 615 2199 116 456 179 664 482 1596 124 381 153
460 153 419 1 -71 142 -1133 206 -1549 91 -592 141 -1040 214 -1900 43 -520
130 -1699 130 -1777 0 -8 -13 -13 -30 -13 l-30 0 0 -119 0 -119 148 -7 c130
-7 480 0 489 9 2 2 12 51 22 110 l18 106 -43 0 c-24 0 -45 3 -47 8 -3 4 -1 72
4 152 4 80 15 300 23 490 62 1378 67 2301 16 2930 -26 326 -47 664 -60 950
-15 353 -12 1114 6 1540 18 421 14 756 -10 895 -25 146 -62 261 -153 482 -2 6
6 13 19 15 32 4 28 37 -12 111 l-32 57 -67 0 c-38 0 -88 2 -112 4 -24 2 -98 0
-164 -4z"/>
<path d="M9424 11901 c-47 -21 -91 -73 -100 -117 l-6 -30 71 -12 c95 -16 98
-16 105 12 20 81 136 70 136 -13 0 -34 -39 -71 -76 -71 -23 0 -24 -4 -24 -60
l0 -60 48 0 c60 0 91 -28 99 -89 5 -35 2 -44 -25 -71 -49 -49 -109 -33 -138
37 -11 24 -20 33 -32 29 -9 -3 -48 -8 -85 -12 -68 -6 -68 -7 -62 -33 8 -34 53
-90 94 -118 83 -56 265 -56 349 0 40 27 82 108 82 159 0 76 -44 142 -108 162
l-23 8 26 20 c98 77 56 232 -73 268 -63 17 -211 12 -258 -9z"/>
<path d="M13373 4035 c-3 -9 -3 -31 0 -50 l6 -34 -45 35 c-53 39 -69 42 -84
13 -15 -26 7 -62 53 -86 l32 -17 -25 -7 c-52 -15 -226 -9 -358 13 l-135 22
-18 -23 c-42 -51 -8 -128 74 -169 27 -13 144 -65 260 -116 117 -51 295 -135
396 -186 236 -118 216 -125 289 98 30 90 51 170 48 178 -5 14 -159 92 -336
170 l-75 33 3 40 c4 39 -10 79 -32 93 -19 13 -46 9 -53 -7z m50 -7 c25 -20 28
-118 3 -118 -21 0 -55 98 -41 119 8 14 18 14 38 -1z m-64 -82 c19 -20 32 -39
28 -42 -15 -16 -112 32 -123 61 -4 8 -3 22 0 30 5 14 9 14 33 1 16 -8 43 -30
62 -50z"/>
<path d="M16211 3866 c-9 -11 -8 -23 4 -51 19 -48 20 -46 -11 -35 -33 13 -71
13 -79 -1 -16 -25 5 -57 47 -71 l41 -14 -44 -37 c-58 -47 -174 -101 -273 -127
-44 -11 -83 -26 -88 -33 -13 -20 -9 -71 8 -95 34 -49 38 -49 517 -47 404 1
449 3 464 18 16 16 16 28 -5 194 -13 97 -28 183 -34 190 -9 11 -58 13 -231 13
l-221 -1 -13 43 c-17 60 -56 86 -82 54z m69 -57 c16 -60 -1 -71 -34 -23 -14
21 -26 46 -26 55 0 47 45 23 60 -32z m-62 -49 c54 -24 46 -40 -18 -40 -39 0
-52 4 -60 20 -23 43 10 51 78 20z"/>
</g>
</svg>
