<?xml version="1.0" encoding="utf-8"?>
<!-- Generator: Adobe Illustrator 27.5.0, SVG Export Plug-In . SVG Version: 6.00 Build 0)  -->
<svg version="1.1" xmlns="http://www.w3.org/2000/svg" xmlns:xlink="http://www.w3.org/1999/xlink" x="0px" y="0px"
	 viewBox="0 0 750 500" style="enable-background:new 0 0 750 500;" xml:space="preserve">
<g id="BACKGROUND">
	<rect style="fill:#FFFFFF;" width="750" height="500"/>
</g>
<g id="OBJECTS">
	<g>
		<linearGradient id="SVGID_1_" gradientUnits="userSpaceOnUse" x1="375" y1="117.1935" x2="375" y2="503.5741">
			<stop  offset="0" style="stop-color:#DFDEEE"/>
			<stop  offset="1" style="stop-color:#C1BED7"/>
		</linearGradient>
		<path style="fill:url(#SVGID_1_);" d="M663.755,302.511c-0.101-12.309-2.901-24.42-8.982-35.426
			c-9.411-17.036-25.191-29.44-38.226-43.892c-34.67-38.437,3.414-95.285-45.256-124.808c-5.437-3.298-11.578-5.851-18.4-7.545
			c-20.433-5.071-41.816-1.698-61.615-9.828c-17.868-7.337-30.3-22.477-45.698-33.477c-24.898-17.787-54.649-20.791-84.295-17.344
			c-57.396,6.674-115.638,38.576-136.595,92.425c-8.506,21.857-10.415,45.779-18.225,67.894
			c-9.095,25.754-29.763,28.792-52.437,36.4c-27.74,9.308-50.957,28.22-61.72,56.07c-11.024,28.526-6.799,62.454,10.886,87.405
			c38.412,54.193,117.473,69.287,179.113,75.277c80.801,7.852,164.296,1.958,243.007-17.597
			c38.806-9.641,78.311-23.366,106.636-51.59C651.367,357.127,663.975,329.346,663.755,302.511z"/>
		<g>
			<g>
				<g>
					<g>
						<rect x="593.563" y="249.69" style="fill:#DFDEEE;" width="32.214" height="15.081"/>
					</g>
				</g>
				<g>
					<rect x="574.349" y="229.492" style="fill:#DFDEEE;" width="32.214" height="15.081"/>
				</g>
			</g>
		</g>
		<g>
			<path style="fill:#C1BED7;" d="M300.03,95.746c-11.244,0-20.359,9.115-20.359,20.359s9.115,20.359,20.359,20.359
				c11.244,0,20.359-9.115,20.359-20.359S311.273,95.746,300.03,95.746z M300.03,130.51c-7.956,0-14.405-6.449-14.405-14.405
				c0-7.956,6.449-14.405,14.405-14.405c7.956,0,14.405,6.449,14.405,14.405C314.434,124.061,307.985,130.51,300.03,130.51z"/>
			<path style="fill:#C1BED7;" d="M342.655,122.96v-13.709h-6.527c-0.341-1.804-0.812-3.56-1.406-5.26l5.65-3.262l-6.855-11.872
				l-5.659,3.267c-1.186-1.375-2.472-2.661-3.847-3.847l3.267-5.659l-11.872-6.854l-3.262,5.65c-1.7-0.594-3.457-1.065-5.26-1.406
				V73.48h-13.709v6.528c-1.804,0.34-3.56,0.812-5.26,1.406l-3.262-5.65l-11.872,6.854l3.267,5.659
				c-1.375,1.186-2.661,2.472-3.847,3.847l-5.659-3.267l-6.854,11.872l5.65,3.262c-0.594,1.7-1.065,3.457-1.406,5.26h-6.527v13.709
				h6.527c0.34,1.804,0.812,3.56,1.406,5.26l-5.65,3.262l6.854,11.872l5.659-3.267c1.186,1.375,2.472,2.661,3.847,3.847
				l-3.267,5.659l11.872,6.854l3.262-5.65c1.7,0.594,3.456,1.065,5.26,1.406v6.527h13.709v-6.527c1.804-0.34,3.56-0.812,5.26-1.406
				l3.262,5.65l11.872-6.854l-3.267-5.659c1.375-1.186,2.661-2.472,3.847-3.847l5.659,3.267l6.855-11.872l-5.65-3.262
				c0.594-1.7,1.065-3.457,1.406-5.26H342.655z M300.03,143.326c-15.034,0-27.221-12.187-27.221-27.221s12.188-27.221,27.221-27.221
				c15.034,0,27.221,12.187,27.221,27.221S315.063,143.326,300.03,143.326z"/>
		</g>
		<g>
			<path style="fill:#DFDEEE;" d="M583.956,327.75c-9.216,0-16.687,7.471-16.687,16.687s7.471,16.687,16.687,16.687
				c9.216,0,16.686-7.471,16.686-16.687S593.172,327.75,583.956,327.75z M583.956,356.243c-6.521,0-11.807-5.286-11.807-11.807
				s5.286-11.807,11.807-11.807c6.521,0,11.806,5.286,11.806,11.807S590.477,356.243,583.956,356.243z"/>
			<path style="fill:#DFDEEE;" d="M618.893,350.055v-11.236h-5.35c-0.279-1.478-0.666-2.918-1.152-4.312l4.631-2.674l-5.618-9.731
				l-4.638,2.678c-0.972-1.127-2.026-2.181-3.153-3.153l2.678-4.638l-9.731-5.618l-2.674,4.631
				c-1.394-0.487-2.833-0.873-4.312-1.152v-5.35h-11.236v5.35c-1.479,0.279-2.918,0.666-4.312,1.152l-2.673-4.631l-9.731,5.618
				l2.678,4.638c-1.127,0.972-2.181,2.026-3.153,3.153l-4.638-2.678l-5.618,9.731l4.63,2.674c-0.487,1.393-0.873,2.833-1.152,4.312
				h-5.35v11.236h5.35c0.279,1.478,0.666,2.918,1.152,4.312l-4.63,2.674l5.618,9.731l4.638-2.678
				c0.972,1.127,2.026,2.181,3.153,3.153l-2.678,4.638l9.731,5.618l2.673-4.631c1.393,0.487,2.833,0.873,4.312,1.152v5.35h11.236
				v-5.35c1.478-0.279,2.918-0.666,4.312-1.152l2.674,4.631l9.731-5.618l-2.678-4.638c1.127-0.972,2.181-2.026,3.153-3.153
				l4.638,2.678l5.618-9.731l-4.631-2.674c0.487-1.393,0.873-2.833,1.152-4.312H618.893z M583.956,366.748
				c-12.322,0-22.311-9.989-22.311-22.311s9.989-22.311,22.311-22.311c12.322,0,22.311,9.989,22.311,22.311
				S596.278,366.748,583.956,366.748z"/>
		</g>
		<g>
			<g>
				<g>
					<g>
						<path style="fill:#0797A7;" d="M531.901,360.385l-14.706-2.339l10.027,5.469c-4.647,2.934-8.355,5.134-13.786,8.055
							l-20.73-6.509l14.742,9.725c-6.208,3.129-9.463,4.834-16.019,7.129c-8.711-4.581-18.24-8.958-18.24-8.958l10.393,11.666
							c-7.898,2.409-15.766,3.869-23.154,3.737c-1.191-0.026-0.055,0.025-1.191-0.026l-11.997-7.172l4.272,6.763
							c-30.728-2.624-36.469-15.454-36.469-15.454s0.176-0.556,0.667-1.592c0.378-0.775,0.936-1.845,1.757-3.126
							c3.162-5.045,10.131-13.577,24.688-23.024l-1.485,10.36l6.958-12.24c1.266-0.562,2.564-1.132,3.922-1.673
							c4.343-1.784,3.625-2.02,8.618-2.854l-2.213,14.416l9.393-15.721c2.949-0.44,5.976-0.736,9.043-0.912l-5.219,13.091
							l12.281-13.132c5.779-0.182,7.841-0.08,13.644,0.379l-5.575,13.565l13.202-12.643c8.7,0.873,8.328,0.926,15.672,2.414
							l-6.21,10.961l12.156-10.182c12.226,2.705,24.378,6.376,24.378,6.376S544.259,352.362,531.901,360.385z"/>
					</g>
				</g>
				<g>
					<g>
						<path style="fill:#0CC3BE;" d="M493.456,321.658l-11.781,3.331l9.37,0.62c-2.455,3.794-4.462,6.715-7.506,10.77l-17.715,2.299
							l14.358,2.168c-3.552,4.478-5.393,6.874-9.493,10.849c-8.081-0.411-16.703-0.388-16.703-0.388l11.782,5.118
							c-5.062,4.524-10.429,8.329-15.987,10.781c-0.898,0.392-0.032,0.038-0.898,0.392l-11.428-1.211l5.522,3.572
							c-23.834,8.649-32.547,1.057-32.547,1.057s-0.061-0.476-0.052-1.418c0.015-0.709,0.061-1.7,0.232-2.939
							c0.618-4.856,2.873-13.629,10.474-25.703l2.469,8.243l0.967-11.535c0.751-0.857,1.523-1.73,2.349-2.603
							c2.625-2.831,2.008-2.759,5.445-5.104l3.325,11.521l1.582-14.974c2.048-1.346,4.205-2.612,6.433-3.802l0.625,11.57
							l4.631-14.038c4.25-2.13,5.823-2.767,10.312-4.427l0.522,12.047l5.487-13.991c6.793-2.352,6.534-2.184,12.527-3.609
							l-0.85,10.323l5.556-11.794c10.057-2.202,20.391-3.657,20.391-3.657S499.908,311.404,493.456,321.658z"/>
					</g>
				</g>
			</g>
			<g>
				<g>
					<g>
						<path style="fill:#0797A7;" d="M262.223,360.385l14.706-2.339l-10.027,5.469c4.647,2.934,8.355,5.134,13.786,8.055
							l20.73-6.509l-14.743,9.725c6.208,3.129,9.464,4.834,16.02,7.129c8.711-4.581,18.241-8.958,18.241-8.958l-10.393,11.666
							c7.898,2.409,15.766,3.869,23.155,3.737c1.191-0.026,0.055,0.025,1.191-0.026l11.997-7.172l-4.272,6.763
							c30.728-2.624,36.469-15.454,36.469-15.454s-0.176-0.556-0.667-1.592c-0.378-0.775-0.936-1.845-1.757-3.126
							c-3.162-5.045-10.131-13.577-24.688-23.024l1.484,10.36l-6.958-12.24c-1.266-0.562-2.564-1.132-3.922-1.673
							c-4.343-1.784-3.625-2.02-8.618-2.854l2.213,14.416l-9.393-15.721c-2.949-0.44-5.976-0.736-9.043-0.912l5.219,13.091
							l-12.281-13.132c-5.779-0.182-7.841-0.08-13.644,0.379l5.575,13.565L289.4,337.366c-8.7,0.873-8.328,0.926-15.672,2.414
							l6.21,10.961l-12.156-10.182c-12.226,2.705-24.378,6.376-24.378,6.376S249.865,352.362,262.223,360.385z"/>
					</g>
				</g>
				<g>
					<g>
						<path style="fill:#0CC3BE;" d="M300.668,321.658l11.781,3.331l-9.37,0.62c2.455,3.794,4.462,6.715,7.507,10.77l17.715,2.299
							l-14.358,2.168c3.552,4.478,5.393,6.874,9.493,10.849c8.081-0.411,16.703-0.388,16.703-0.388l-11.782,5.118
							c5.062,4.524,10.429,8.329,15.987,10.781c0.898,0.392,0.032,0.038,0.898,0.392l11.428-1.211l-5.522,3.572
							c23.834,8.649,32.547,1.057,32.547,1.057s0.061-0.476,0.052-1.418c-0.015-0.709-0.061-1.7-0.232-2.939
							c-0.618-4.856-2.873-13.629-10.474-25.703l-2.469,8.243l-0.967-11.535c-0.751-0.857-1.523-1.73-2.349-2.603
							c-2.625-2.831-2.008-2.759-5.445-5.104l-3.325,11.521l-1.582-14.974c-2.048-1.346-4.205-2.612-6.433-3.802l-0.625,11.57
							l-4.631-14.038c-4.25-2.13-5.823-2.767-10.312-4.427l-0.522,12.047l-5.487-13.991c-6.793-2.352-6.534-2.184-12.527-3.609
							l0.85,10.323l-5.556-11.794c-10.057-2.202-20.391-3.657-20.391-3.657S294.216,311.404,300.668,321.658z"/>
					</g>
				</g>
			</g>
			<path style="fill:#0CC3BE;" d="M206.172,112.308c4.597,4.841,7.326,11.871,7.246,18.483c0.498,1.081,1.067,2.319,1.709,3.709
				c1.725-6.286,5.397-11.956,10.078-16.434c-0.736,6.686-4.395,13.357-9.558,17.558c1.061,2.289,2.287,4.912,3.685,7.832
				c0.647,1.343,1.324,2.75,2.03,4.215c0.34,0.692,0.695,1.394,1.055,2.105c3.237-8.953,9.555-16.537,17.257-22.036
				c-2.158,9.333-8.709,17.987-17,22.546c0.317,0.624,0.635,1.252,0.958,1.896c1.543,3.138,3.307,6.385,5.118,9.836
				c0.837,1.542,1.703,3.114,2.589,4.705c2.957-10.999,9.648-20.704,18.239-28.15c-1.305,11.6-7.998,22.874-17.438,29.581
				c2.08,3.704,4.286,7.514,6.606,11.369c0.058,0.029,0.118,0.053,0.176,0.082c-0.035,0.012-0.071,0.021-0.107,0.032
				c0.797,1.323,1.602,2.65,2.425,3.98c0.082,0.131,0.163,0.257,0.245,0.388c2.775-12.618,11.087-24.352,22.035-30.839
				c-3.267,12.781-11.031,23.942-21.033,32.426c4.187,6.608,8.305,12.663,12.144,18.048c0.323,0.438,0.638,0.87,0.956,1.303
				c0.707-15.829,8.591-31.746,20.745-41.572c-1.69,15.995-9.227,30.798-19.946,42.662c1.49,2.038,2.924,4,4.318,5.768
				c0.962,1.244,1.885,2.475,2.782,3.616c0.903,1.121,1.769,2.197,2.596,3.225c0.023,0.029,0.045,0.055,0.069,0.084
				c2.506-14.877,11.711-29.017,24.259-37.004c-3.309,14.915-11.944,28.099-23.266,38.223c6.014,7.362,9.798,11.489,9.755,12.004
				c-0.02,0.339-2.941-2.121-7.78-7.305c-10.522,6.787-23.188,9.539-35.642,8.92c9.447-7.876,22.754-11.577,34.824-9.803
				c-0.767-0.833-1.577-1.73-2.427-2.689c-0.028,0.024-0.055,0.05-0.083,0.074c0.005-0.048,0.015-0.095,0.021-0.143
				c-0.048-0.054-0.093-0.103-0.141-0.158c-0.857-0.984-1.754-2.016-2.689-3.09c-0.93-1.102-1.886-2.301-2.883-3.52
				c-0.358-0.429-0.721-0.884-1.085-1.337c-14.437,6.405-30.752,7.463-46.194,4.406c13.067-7.996,30.035-10.307,44.716-6.279
				c-1.208-1.559-2.446-3.197-3.73-4.88c-1.626-2.205-3.299-4.536-5.003-6.984c-15.531,3.757-31.953,1.768-46.712-4.188
				c14.452-5.456,31.723-4.502,45.448,2.355c-2.477-3.612-5.009-7.455-7.55-11.521c-1.139-1.841-2.251-3.681-3.336-5.513
				c-12.536,3.537-25.984,2.584-38.292-1.581c11.439-5.085,25.36-5.272,36.954-0.701c-2.519-4.327-4.879-8.587-7.06-12.69
				c-11.535,0.761-23.7-3.553-31.922-11.44c10.862-0.229,21.452,3.201,30.608,8.934c-1.689-3.319-3.316-6.471-4.733-9.515
				c-0.768-1.619-1.523-3.172-2.219-4.684c-0.285-0.639-0.563-1.262-0.839-1.879c-7.285,1.719-15.138-0.461-20.576-5.8
				c6.972-1.206,13.872,0.544,19.886,4.255c-0.141-0.316-0.287-0.642-0.425-0.952c-1.288-2.927-2.399-5.566-3.341-7.882
				c-0.01,0.008-0.02,0.016-0.03,0.023c0.005-0.021,0.01-0.042,0.015-0.062c-0.148-0.364-0.293-0.723-0.433-1.07
				c-6.657-0.909-13.223-4.601-17.251-9.776c6.141,1.064,11.831,4.006,16.553,8.016c-0.306-0.782-0.58-1.498-0.833-2.169
				C208.706,125.81,206.59,119.059,206.172,112.308z"/>
			<path style="fill:#0CC3BE;" d="M597.839,230.8c-4.51,3.502-7.721,9.094-8.504,14.694c-0.56,0.85-1.201,1.824-1.922,2.916
				c-0.649-5.537-3.025-10.803-6.406-15.191c-0.238,5.748,1.997,11.858,5.821,16.074c-1.191,1.799-2.566,3.859-4.123,6.148
				c-0.72,1.052-1.474,2.154-2.259,3.303c-0.377,0.541-0.767,1.089-1.163,1.644c-1.585-7.986-5.951-15.211-11.755-20.851
				c0.623,8.168,5.048,16.328,11.472,21.249c-0.348,0.487-0.698,0.977-1.054,1.48c-1.708,2.454-3.617,4.973-5.592,7.658
				c-0.906,1.196-1.84,2.414-2.794,3.645c-1.085-9.68-5.493-18.746-11.798-26.147c-0.389,9.976,3.819,20.368,10.937,27.253
				c-2.235,2.864-4.591,5.801-7.048,8.762c-0.052,0.017-0.107,0.03-0.159,0.047c0.028,0.014,0.058,0.027,0.086,0.041
				c-0.844,1.016-1.696,2.034-2.563,3.053c-0.086,0.1-0.171,0.197-0.257,0.296c-0.722-11.025-6.24-22.016-14.661-28.909
				c1.117,11.227,6.245,21.661,13.61,30.122c-4.39,5.048-8.651,9.637-12.59,13.696c-0.33,0.329-0.652,0.653-0.976,0.979
				c1.439-13.473-3.179-27.945-12.19-37.817c-0.629,13.741,3.838,27.226,11.374,38.636c-1.522,1.531-2.987,3.006-4.393,4.321
				c-0.973,0.928-1.912,1.85-2.818,2.699c-0.907,0.832-1.778,1.63-2.61,2.392c-0.023,0.021-0.045,0.041-0.069,0.062
				c-0.205-12.9-6.168-26.04-15.749-34.407c0.878,13.036,6.482,25.293,14.752,35.31c-6.032,5.451-9.762,8.452-9.792,8.893
				c-0.026,0.289,2.76-1.414,7.518-5.175c8.023,7.092,18.377,11.049,28.986,12.128c-6.973-7.874-17.748-12.716-28.181-12.769
				c0.756-0.606,1.556-1.26,2.398-1.961c0.02,0.024,0.04,0.049,0.061,0.073c0.002-0.041-0.001-0.083,0-0.124
				c0.047-0.039,0.092-0.075,0.139-0.115c0.851-0.722,1.742-1.479,2.671-2.267c0.928-0.812,1.891-1.703,2.89-2.605
				c0.358-0.317,0.724-0.655,1.089-0.991c11.382,7.273,25.039,10.267,38.488,9.669c-10.019-8.441-24.067-12.579-36.998-11.063
				c1.222-1.162,2.479-2.389,3.781-3.646c1.658-1.655,3.373-3.411,5.129-5.261c12.648,5.175,26.787,5.607,40.032,2.47
				c-11.516-6.472-26.241-7.888-38.728-3.857c2.559-2.735,5.194-5.658,7.866-8.769c1.2-1.41,2.377-2.822,3.53-4.232
				c10.144,4.604,21.636,5.529,32.578,3.591c-9.017-5.771-20.763-7.72-31.154-5.348c2.687-3.334,5.23-6.632,7.602-9.82
				c9.655,2.128,20.495,0.046,28.461-5.565c-9.154-1.591-18.549-0.054-27.028,3.615c1.855-2.589,3.636-5.044,5.226-7.436
				c0.858-1.27,1.696-2.486,2.478-3.674c0.323-0.504,0.638-0.994,0.951-1.48c5.938,2.391,12.858,1.558,18.143-2.256
				c-5.74-1.917-11.799-1.325-17.36,1.038c0.16-0.249,0.325-0.506,0.482-0.75c1.466-2.309,2.745-4.398,3.839-6.234
				c0.008,0.008,0.015,0.016,0.023,0.024c-0.001-0.018-0.003-0.036-0.004-0.055c0.172-0.289,0.341-0.573,0.503-0.849
				c5.745,0.088,11.772-2.188,15.843-6.045c-5.329,0.109-10.518,1.865-15.027,4.647c0.359-0.622,0.683-1.192,0.983-1.727
				C593.959,241.889,596.617,236.454,597.839,230.8z"/>
			<g>
				<path style="fill:#0CC3BE;" d="M515.206,211.194c1.145,9.249,8.889,16.148,11.813,24.971c1.695,5.1,2.623,24.438,9.591,26.796
					c1.33,0.449,2.877,0.278,4.693-0.731c0.646-0.355,1.318-0.802,2.027-1.378c5.341-4.307,6.365-11.917,8.402-18.133
					c2.188-6.637,7.363-11.66,12.4-16.537c1.031-0.998,2.063-1.984,3.059-2.99c16.996-17.044-0.34-35.373,3.543-54.757
					c1.753-8.699,8.849-16.072,8.245-24.939c-0.698-10.295-11.364-17.15-13.571-27.221c-2.354-10.686,5.439-20.818,6.656-31.698
					c1.714-15.275-11.849-30.125-26.705-30.31c-14.856-0.186-28.25,13.203-29.723,28.506c-1.539,15.957,7.846,32.968,1.318,47.469
					c-3.563,7.91-11.603,14.225-11.213,22.96c0.443,9.767,11.262,15.747,13.842,25.175
					C522.537,189.156,513.835,200.095,515.206,211.194z"/>
				<path style="fill:#0797A7;" d="M545.667,157.196c0.102,5.581-0.442,33.871-0.896,41.189c-3.692-6.263-8.42-11.755-14.207-16.327
					c-2.295-1.812-5.264,1.627-2.969,3.439c6.777,5.342,12.125,11.995,15.761,19.833c0.204,0.452,0.501,0.771,0.847,0.996
					c-0.465,5.919-3.147,33.614-7.594,56.636c1.33,0.449,2.877,0.278,4.693-0.731c2.188-11.452,3.963-22.952,5.357-34.516
					c5.133-8.071,10.954-15.622,17.413-22.686c1.982-2.16-1.469-5.128-3.439-2.969c-4.636,5.075-8.922,10.42-12.895,16.004
					c1.444-14.299,2.282-28.645,2.515-43.004c5.146-9.608,11.542-18.306,19.177-26.105c2.043-2.096-1.406-5.053-3.439-2.969
					c-5.961,6.094-11.176,12.748-15.67,19.918c-0.029-14.214-0.638-28.42-1.847-42.581c0.389-0.279,0.701-0.689,0.866-1.236
					c2.928-9.741,7.207-18.91,12.823-27.381c1.599-2.405-1.819-5.398-3.428-2.97c-4.561,6.868-8.29,14.073-11.204,21.685
					c-0.496-4.755-3.492-26.822-4.351-31.869c-0.484-2.878-4.994-2.297-4.498,0.591c0.604,3.587,1.152,7.177,1.689,10.769
					l-10.019-7.335c-2.346-1.729-5.339,1.7-2.97,3.427c4.619,3.395,9.25,6.788,13.88,10.171c2.267,16.941,3.673,33.956,4.217,51.001
					c-6.3-6.914-13.151-13.252-20.614-18.954c-2.315-1.777-5.285,1.651-2.958,3.438
					C530.628,141.327,538.565,148.827,545.667,157.196z"/>
			</g>
		</g>
		<g>
			<g>
				<path style="fill:#414C5B;" d="M541.693,340.219H253.742c-4.985,0-9.027-4.041-9.027-9.026V146.149
					c0-4.985,4.041-9.026,9.027-9.026h287.951c4.985,0,9.027,4.041,9.027,9.026v185.044
					C550.72,336.178,546.678,340.219,541.693,340.219z"/>
				<path style="fill:#C1BED7;" d="M538.031,151.033v175.268c0,1.249-1.01,2.259-2.259,2.259H259.656
					c-1.237,0-2.248-1.01-2.248-2.259V151.033c0-1.237,1.01-2.248,2.248-2.248h276.116
					C537.02,148.785,538.031,149.795,538.031,151.033z"/>
			</g>
			<g>
				<rect x="373.395" y="340.219" style="fill:#414C5B;" width="48.657" height="40.366"/>
				<rect x="343.636" y="380.585" style="fill:#343C4B;" width="108.163" height="7.626"/>
				<rect x="373.395" y="340.219" style="fill:#343C4B;" width="48.657" height="16.593"/>
			</g>
		</g>
		<g>
			<circle style="fill:#FFFFFF;" cx="455.546" cy="99.941" r="5.049"/>
			<circle style="fill:#FFFFFF;" cx="472.87" cy="117.057" r="5.049"/>
			<circle style="fill:#FFFFFF;" cx="490.426" cy="103.594" r="4.307"/>
			<circle style="fill:#FF7658;" cx="476.099" cy="92.456" r="3.572"/>
		</g>
		<g>
			<path style="fill:#456997;" d="M538.031,151.033v18.381H257.408v-18.381c0-1.237,1.01-2.248,2.248-2.248h276.116
				C537.02,148.785,538.031,149.795,538.031,151.033z"/>
			<rect x="263.962" y="154.845" style="fill:#698BB1;" width="157.976" height="8.51"/>
			<g>
				<path style="fill:#0CC3BE;" d="M493.646,159.1c0,2.284-1.852,4.136-4.136,4.136c-2.285,0-4.137-1.852-4.137-4.136
					c0-2.285,1.852-4.137,4.137-4.137C491.794,154.963,493.646,156.815,493.646,159.1z"/>
				<path style="fill:#FCC700;" d="M510.304,159.1c0,2.284-1.852,4.136-4.137,4.136c-2.284,0-4.136-1.852-4.136-4.136
					c0-2.285,1.852-4.137,4.136-4.137C508.452,154.963,510.304,156.815,510.304,159.1z"/>
				<path style="fill:#FF7658;" d="M526.961,159.1c0,2.284-1.852,4.136-4.136,4.136c-2.284,0-4.136-1.852-4.136-4.136
					c0-2.285,1.852-4.137,4.136-4.137C525.11,154.963,526.961,156.815,526.961,159.1z"/>
			</g>
		</g>
		<path style="fill:#FFFFFF;" d="M538.031,169.411v156.89c0,1.249-1.01,2.259-2.259,2.259H345.882V169.411H538.031z"/>
		<polygon style="fill:#FD7658;" points="421.063,240.914 387.73,298.648 454.395,298.648 		"/>
		
			<ellipse transform="matrix(0.2268 -0.974 0.974 0.2268 120.6301 646.2054)" style="fill:#0CC3BE;" cx="467.285" cy="247.132" rx="30.81" ry="30.81"/>
		<rect x="419.927" y="196.16" style="fill:#FCC700;" width="33.097" height="33.097"/>
		<g>
			<rect x="276.126" y="182.508" style="fill:#FFFFFF;" width="50.417" height="114.636"/>
			<g>
				<g>
					<line style="fill:none;stroke:#FF7658;stroke-miterlimit:10;" x1="319.085" y1="202.826" x2="294.634" y2="227.277"/>
					<rect x="294.634" y="202.826" style="fill:none;stroke:#343C4B;stroke-miterlimit:10;" width="24.451" height="24.451"/>
				</g>
				<rect x="283.585" y="190.601" style="fill:#FF7658;" width="24.451" height="24.451"/>
			</g>
			<g>
				<rect x="283.585" y="234.995" style="fill:#0CC3BE;" width="14.473" height="14.473"/>
				<rect x="304.612" y="234.995" style="fill:#FCC700;" width="14.473" height="14.473"/>
				<rect x="283.585" y="255.307" style="fill:#FF7658;" width="14.473" height="14.473"/>
				<rect x="304.612" y="255.307" style="fill:#456997;" width="14.473" height="14.473"/>
				<rect x="283.585" y="275.62" style="fill:#C1BED7;" width="14.473" height="14.473"/>
				
					<rect x="304.612" y="275.62" style="fill:none;stroke:#343C4B;stroke-width:0.5;stroke-miterlimit:10;" width="14.473" height="14.473"/>
			</g>
		</g>
		<polygon style="fill:#343C4B;" points="312.907,278.815 291.268,262.066 291.713,289.426 298.585,285.986 303.999,296.801 
			311.45,293.07 306.036,282.255 		"/>
		
			<rect x="377.723" y="184.752" style="fill:none;stroke:#C1BED7;stroke-width:2;stroke-miterlimit:10;stroke-dasharray:7;" width="128.466" height="128.466"/>
		<g>
			<g>
				<path style="fill:#FCC700;" d="M229.14,371.63l2.636,4.49h-95.171c-2.316,0-4.193-1.81-4.193-4.042v-7.774
					c0-2.232,1.877-4.042,4.193-4.042h95.171l-2.636,4.49V371.63z"/>
				<polygon style="fill:#FDA859;" points="229.14,371.63 231.777,376.119 193.119,376.119 193.119,360.261 231.777,360.261 
					229.14,364.75 				"/>
				<rect x="197.66" y="364.75" style="fill:#FFFFFF;" width="31.477" height="6.877"/>
			</g>
			<g>
				<path style="fill:#456997;" d="M146.859,355.771l-2.636,4.489h95.171c2.316,0,4.193-1.81,4.193-4.042v-13.165
					c0-2.232-1.878-4.042-4.193-4.042h-95.171l2.636,4.489V355.771z"/>
				<polygon style="fill:#254F79;" points="146.859,355.771 144.223,360.261 210.844,360.261 210.844,339.011 144.223,339.011 
					146.859,343.501 				"/>
				
					<rect x="146.862" y="343.501" transform="matrix(-1 -1.224647e-16 1.224647e-16 -1 353.1651 699.2691)" style="fill:#FFFFFF;" width="59.44" height="12.267"/>
			</g>
			<g>
				<g>
					<g>
						<path style="fill:#414C5B;" d="M241.239,393.777l2.636,4.49h-95.171c-2.316,0-4.193-1.81-4.193-4.042v-14.064
							c0-2.232,1.877-4.042,4.193-4.042h95.171l-2.636,4.489V393.777z"/>
						<path style="fill:#FFFFFF;" d="M241.236,393.774H150.69c-1.01,0-1.829-0.819-1.829-1.829v-9.508
							c0-1.01,0.819-1.829,1.829-1.829h90.546V393.774z"/>
					</g>
					<rect x="180.842" y="380.608" style="fill:#DFDEEE;" width="60.393" height="13.166"/>
				</g>
				<polygon style="fill:#FF7658;" points="162.833,399.543 158.059,395.949 153.285,399.543 153.285,390.339 162.833,390.339 				
					"/>
			</g>
		</g>
		<g>
			
				<linearGradient id="SVGID_00000091709728684188706480000008245926703958301116_" gradientUnits="userSpaceOnUse" x1="227.342" y1="264.7545" x2="227.342" y2="321.9109">
				<stop  offset="0" style="stop-color:#E1E0F0;stop-opacity:0"/>
				<stop  offset="1" style="stop-color:#C3C0D9"/>
			</linearGradient>
			<polygon style="fill:url(#SVGID_00000091709728684188706480000008245926703958301116_);" points="257.404,318.959 
				257.081,266.373 233.926,243.564 197.28,243.822 197.761,318.959 			"/>
			<g>
				<g>
					<polygon style="fill:#FFFFFF;" points="262.66,314.491 262.337,261.904 239.182,239.096 202.536,239.353 203.017,314.491 					
						"/>
					<polygon style="fill:#DFDEEE;" points="262.337,261.904 239.343,262.066 239.182,239.096 					"/>
				</g>
				<g>
					<path style="fill:#456997;" d="M227.91,289.853h-11.492l-1.858,4.703h-7.131l11.416-26.588h7.131l11.151,26.588h-7.396
						L227.91,289.853z M225.861,284.543l-3.641-9.482l-3.717,9.482H225.861z"/>
					<path style="fill:#456997;" d="M257.768,281.205v13.351h-6.637v-2.314c-1.327,1.708-3.413,2.618-6.182,2.618
						c-4.4,0-7.017-2.655-7.017-6.411c0-3.906,2.769-6.143,7.851-6.22h5.348v-0.226c0-1.935-1.327-3.073-3.907-3.073
						c-1.707,0-3.945,0.568-6.144,1.63l-1.858-4.551c3.224-1.44,6.182-2.237,9.558-2.237
						C254.43,273.771,257.73,276.502,257.768,281.205z M251.13,287.616v-1.784h-4.02c-1.896,0-2.845,0.683-2.845,2.124
						c0,1.402,1.024,2.313,2.769,2.313C249.044,290.269,250.713,289.17,251.13,287.616z"/>
				</g>
			</g>
		</g>
		<g>
			<path style="fill:#FDA859;" d="M426.107,107.1c0,7.676-2.893,14.704-7.696,20.142c-2.091,2.358-3.741,5.037-4.87,7.917
				c-1.136,2.879-1.744,5.952-1.744,9.106c0,4.469-3.621,8.09-8.09,8.09h-20.229c-2.231,0-4.256-0.902-5.719-2.372
				c-1.47-1.463-2.372-3.487-2.372-5.719c0-6.3-2.438-12.306-6.607-17.022c-4.803-5.438-7.696-12.466-7.696-20.142
				c0-17.223,14.55-31.179,32.508-31.179S426.107,89.877,426.107,107.1z"/>
			<g>
				<path style="fill:#414C5B;" d="M394.805,174.21h-2.422c-4.151,0-7.516-3.365-7.516-7.516l0,0h17.453l0,0
					C402.32,170.845,398.955,174.21,394.805,174.21z"/>
				<rect x="381.945" y="152.107" style="fill:#343C4B;" width="23.296" height="15.993"/>
				<rect x="379.314" y="155.087" style="fill:#414C5B;" width="28.56" height="4.175"/>
				<rect x="379.314" y="161.267" style="fill:#414C5B;" width="28.56" height="4.175"/>
			</g>
			<g>
				<path style="fill:#FFFFFF;" d="M405.06,114.586h-0.422c-3.003,0-5.445,2.35-5.555,5.353l-0.121,3.447h-10.469l-0.127-3.447
					c-0.11-3.003-2.546-5.353-5.549-5.353h-0.693c-3.06,0-5.555,2.494-5.555,5.555c0,3.066,2.494,5.555,5.555,5.555h4.14
					l0.964,26.66h2.31l-0.964-26.66h10.301l-0.958,26.66h2.304l0.97-26.66h3.869c3.066,0,5.555-2.489,5.555-5.555
					C410.615,117.08,408.126,114.586,405.06,114.586z M382.125,123.385c-1.79,0-3.245-1.455-3.245-3.245
					c0-1.79,1.455-3.245,3.245-3.245h0.693c1.755,0,3.176,1.374,3.239,3.13l0.121,3.361H382.125z M405.06,123.385h-3.788
					l0.121-3.361c0.064-1.755,1.49-3.13,3.245-3.13h0.422c1.79,0,3.245,1.455,3.245,3.245
					C408.305,121.93,406.85,123.385,405.06,123.385z"/>
			</g>
			<path style="fill:#FCC700;" d="M364.958,100.058c-0.121,0.433-0.231,0.868-0.331,1.307c-0.195,0.86-0.351,1.748-0.224,2.621
				c0.409,2.801,3.361,3.212,5.623,2.52c9.058-2.771,17.146-10.921,21.993-18.799c1.603-2.606,2.38-6.69-0.887-8.357
				c-3.498-1.785-8.174,0.427-11.232,2.122C372.793,85.413,367.154,92.201,364.958,100.058z"/>
			<path style="fill:#FCC700;" d="M397.323,82.52c0.051,1.317,0.831,2.546,1.908,3.304c1.078,0.758,2.423,1.076,3.741,1.067
				c0.961-0.006,1.963-0.198,2.716-0.795c1.061-0.841,1.413-2.396,0.999-3.686c-0.414-1.289-1.496-2.299-2.743-2.826
				C401.337,78.483,397.175,78.751,397.323,82.52z"/>
		</g>
		<g>
			<polygon style="fill:#FFFFFF;" points="353.036,44.451 370.218,37.499 377.18,71.033 			"/>
			<polygon style="fill:#FFFFFF;" points="386.762,42.434 396.348,47.378 384.193,63.172 			"/>
			<polygon style="fill:#FFFFFF;" points="344.627,65.918 348.692,55.927 365.512,66.617 			"/>
		</g>
		<g>
			<g>
				<rect x="111.124" y="287.037" style="fill:#C1BED7;" width="32.214" height="15.081"/>
				<rect x="149.553" y="286.711" style="fill:#C1BED7;" width="32.214" height="15.081"/>
			</g>
			<rect x="130.339" y="266.513" style="fill:#C1BED7;" width="32.214" height="15.081"/>
		</g>
		<path style="fill:none;stroke:#FF7658;stroke-miterlimit:10;" d="M301.335,199.924"/>
		<g>
			<g>
				<g>
					<path style="fill:#FCC700;" d="M478.882,303.588c0,0,6.231,5.3,7.508,5.984c1.277,0.685,17.879-0.876,17.879-0.876
						l-20.859-11.21L478.882,303.588z"/>
					<path style="fill:#FFFFFF;" d="M474.066,303.172c0,0,9.84,5.763,11.224,5.643c1.384-0.119,8.408-4.589,8.408-4.589
						l-11.139-5.463L474.066,303.172z"/>
				</g>
				<path style="fill:#FCC700;" d="M529.214,260.497c0,0-9.827,3.36-11.355,5.252c-1.529,1.892-28.394,34.433-28.394,34.433
					l16.081,9.39l18.191-23.732L529.214,260.497z"/>
			</g>
			<g>
				<g>
					<g>
						<g>
							<path style="fill:#343C4B;" d="M624.849,422.192c-0.819,0.069-1.831-0.079-2.537-0.988
								c-2.058-2.654-8.867-12.579-11.925-14.963c-2.375-1.852-6.791-2.898-8.647-3.274l-4.116-20.607
								c4.892-2.479,14.695-5.756,16.749-6.432L624.849,422.192z"/>
							<polygon style="fill:#FFFFFF;" points="629.413,421.181 618.938,374.916 614.374,375.928 624.849,422.192 							"/>
							<g>
								<path style="fill:#FFFFFF;" d="M610.784,402.061c0.045-0.044,0.091-0.087,0.137-0.129c0.348-0.315,0.93-0.597,1.292-0.114
									c0.185,0.247,0.221,0.573,0.231,0.881c0.036,1.061-0.181,2.094-0.477,3.102c-0.319,1.083-0.667,2.24-1.453,3.075
									c-0.813,0.864-1.911,0.17-1.937-0.98C608.532,405.906,609.347,403.461,610.784,402.061z"/>
								<path style="fill:#FFFFFF;" d="M614.016,404.994c0.045-0.044,0.091-0.087,0.137-0.129c0.348-0.315,0.93-0.597,1.292-0.114
									c0.185,0.247,0.22,0.573,0.231,0.881c0.036,1.06-0.181,2.094-0.478,3.101c-0.319,1.083-0.667,2.24-1.453,3.075
									c-0.813,0.864-1.911,0.17-1.937-0.98C611.764,408.84,612.579,406.394,614.016,404.994z"/>
								<path style="fill:#FFFFFF;" d="M616.597,408.919c0.045-0.044,0.091-0.087,0.137-0.129c0.348-0.315,0.93-0.597,1.292-0.114
									c0.185,0.247,0.221,0.573,0.231,0.881c0.036,1.061-0.181,2.094-0.477,3.102c-0.319,1.083-0.667,2.24-1.453,3.075
									c-0.813,0.864-1.911,0.17-1.937-0.98C614.345,412.765,615.161,410.319,616.597,408.919z"/>
							</g>
						</g>
					</g>
					<g>
						<g>
							<path style="fill:#343C4B;" d="M450.613,420.868c0.091-0.817,0.433-1.781,1.462-2.297c3.002-1.505,14.06-6.26,16.992-8.797
								c2.277-1.971,4.16-6.1,4.888-7.848l21.014-0.042c1.484,5.28,2.797,15.532,3.063,17.678L450.613,420.868z"/>
							<polygon style="fill:#FFFFFF;" points="450.72,425.542 498.138,424.236 498.031,419.562 450.613,420.868 							"/>
							<g>
								<path style="fill:#FFFFFF;" d="M473.09,410.973c0.034,0.053,0.068,0.106,0.1,0.16c0.241,0.403,0.405,1.028-0.139,1.29
									c-0.278,0.134-0.605,0.105-0.909,0.056c-1.047-0.17-2.019-0.584-2.95-1.07c-1.001-0.523-2.068-1.089-2.735-2.022
									c-0.69-0.965,0.203-1.908,1.337-1.71C469.754,408.018,471.995,409.292,473.09,410.973z"/>
								<path style="fill:#FFFFFF;" d="M469.585,413.574c0.034,0.053,0.068,0.106,0.1,0.16c0.241,0.403,0.405,1.028-0.139,1.29
									c-0.278,0.134-0.605,0.105-0.909,0.056c-1.047-0.17-2.019-0.584-2.95-1.07c-1.001-0.523-2.068-1.089-2.735-2.022
									c-0.69-0.965,0.203-1.908,1.337-1.71C466.25,410.62,468.49,411.894,469.585,413.574z"/>
								<path style="fill:#FFFFFF;" d="M465.234,415.346c0.034,0.053,0.068,0.106,0.1,0.16c0.241,0.403,0.405,1.028-0.139,1.29
									c-0.278,0.133-0.605,0.105-0.909,0.056c-1.047-0.17-2.019-0.583-2.95-1.07c-1.001-0.523-2.068-1.089-2.735-2.022
									c-0.69-0.965,0.203-1.908,1.337-1.71C461.898,412.392,464.139,413.666,465.234,415.346z"/>
							</g>
						</g>
					</g>
				</g>
				<g>
					<g>
						<path style="fill:#DE624C;" d="M542.386,334.288c0,0-47.181-16.549-57.4-17.343s-14.975,2.757-16.361,6.342
							c-2.664,6.895-1.302,80.432-1.302,80.432h33.743l-4.189-55.259c0,0,25.913,23.234,30.37,24.25
							c4.457,1.016,23.826,0.903,23.826,0.903L542.386,334.288z"/>
					</g>
					<path style="fill:#FD7658;" d="M604.644,408.35c0,0-66.511,13.432-70.309,12.918c-7.54-1.04-10.77-3.878-11.621-14.094
						c-0.838-10.202,9.446-75.511,9.446-75.511l24.405,0.851l1.662,0.054l9.891,0.324c0,0,3.203,19.121,2.905,23.675
						c-0.297,4.568-12.77,28.648-12.77,28.648l42.309-9.284l1.676,13.27L604.644,408.35z"/>
					<path style="fill:#DE624C;" d="M563.659,357.446c2.162-3.581-4.811-19.824-7.094-24.931l1.662,0.054l9.891,0.324
						c0,0,3.203,19.121,2.905,23.675c-0.297,4.568-12.77,28.648-12.77,28.648l42.309-9.284l1.676,13.27l-54.836,4.608
						C547.402,393.81,561.064,361.716,563.659,357.446z"/>
				</g>
			</g>
			<g>
				<path style="fill:#FCC700;" d="M572.202,345.452c-38.141,20.013-55.906-19.933-55.906-19.933s8.253-46.61,9.059-49.992
					c1.782-7.424,3.86-15.029,3.86-15.029l9.399-5.619h19.877l7.219,3.383c0,0,1.316,14.687,1.419,29.151
					c0.041,5.794-1.216,17.267-1.135,18.972C566.277,312.343,572.202,345.452,572.202,345.452z"/>
			</g>
			<path style="fill:#FDA859;" d="M526.765,270.356c-4.445,16.467-8.156,33.458-10.09,50.414c-0.011,0.095,0.143,0.113,0.166,0.022
				c4.073-16.597,7.545-33.383,11.309-50.055C528.352,269.84,527.007,269.459,526.765,270.356z"/>
			<g>
				<path style="fill:#FFFFFF;" d="M540.121,252.999c0,0-5.141,4.65-5.334,6.298c-0.192,1.648,0.521,8.744,0.521,8.744l5.767-4.35
					l4.973,6.113c0,0,12.268-12.992,12.442-14.926c0.174-1.934-5.572-6.553-5.572-6.553L540.121,252.999z"/>
				<g>
					<g>
						<g>
							<g>
								<g>
									<g>
										<path style="fill:#FFA07F;" d="M553.117,251.304c-0.283,0.318-12.898,10.872-12.898,10.872s-0.055-6.034-0.098-9.177
											c-0.016-0.973-0.027-1.669-0.036-1.822c-0.075-1.253-1.468-6.616-1.468-6.616l12.955-6.885c0,0,0.374,2.734,0.759,5.754
											C552.795,247.071,553.272,251.129,553.117,251.304z"/>
										<path style="fill:#FF7D6F;" d="M552.33,243.429c-3.539,2.907-11.338,9.271-12.138,9.551
											c-0.024,0.007-0.047,0.015-0.071,0.019c-0.016-0.973-0.027-1.669-0.036-1.822c-0.075-1.253-1.468-6.616-1.468-6.616
											l12.955-6.885C551.571,237.675,551.945,240.409,552.33,243.429z"/>
									</g>
								</g>
								<g>
									<g>
										<path style="fill:#FFA07F;" d="M553.422,238.032c0,0-0.276,0.982-1.685,2.386l-0.003,0
											c-0.287,0.288-0.625,0.595-1.016,0.914c-1.496,1.214-15.75,8.355-18.022,8.189c-2.272-0.166-4.857-7.784-5.023-8.591
											c-1.022-4.954-3.936-20.277-3.936-20.277c4.556-17.159,24.908-9.628,27.26-8.109
											C553.349,214.062,553.422,238.032,553.422,238.032z"/>
										<path style="fill:#FFFFFF;" d="M534.995,239.198l10.478-3.463c0,0,0.698,6.081-4.426,7.292
											C535.924,244.237,534.995,239.198,534.995,239.198z"/>
										<path style="fill:#FFBF90;" d="M551.734,240.418c-0.287,0.288-0.625,0.595-1.016,0.914
											c-1.496,1.214-15.75,8.355-18.022,8.189c-2.272-0.166-4.857-7.784-5.023-8.591c1.606,3.318,3.473,7.927,5.059,7.681
											C535.123,248.242,550.013,241.459,551.734,240.418z"/>
									</g>
									<g>
										<path style="fill:#343C4B;" d="M526.794,225.935c0,0,0.615-4.467,2.624-3.943c2.009,0.523,1.489,0.983,1.489,0.983
											L526.794,225.935z"/>
										<path style="fill:#343C4B;" d="M546.523,219.622c0,0-6.155-4.45-7.676-2.002c-0.888,1.429,0.102,2.029,0.102,2.029
											L546.523,219.622z"/>
										<g>
											<path style="fill:#343C4B;" d="M544.386,227.711c0.093,1.555-0.617,2.862-1.585,2.919
												c-0.968,0.058-1.828-1.156-1.921-2.71c-0.093-1.555,0.617-2.862,1.585-2.919
												C543.434,224.943,544.294,226.156,544.386,227.711z"/>
											<path style="fill:#FFFFFF;" d="M545.967,226.04c0,0-0.559,1.004-1.601,1.5c-1.042,0.496-2.174,0.297-2.174,0.297
												s0.559-1.004,1.601-1.5C544.836,225.84,545.967,226.04,545.967,226.04z"/>
										</g>
										<g>
											<path style="fill:#343C4B;" d="M527.875,229.755c0.07,1.172,0.718,2.086,1.448,2.043c0.73-0.044,1.264-1.029,1.195-2.201
												c-0.07-1.172-0.718-2.086-1.448-2.043C528.341,227.598,527.806,228.583,527.875,229.755z"/>
											<path style="fill:#FFFFFF;" d="M526.68,228.793c0,0,0.501,0.598,1.28,0.86c0.778,0.262,1.539,0.089,1.539,0.089
												s-0.501-0.598-1.28-0.86C527.441,228.62,526.68,228.793,526.68,228.793z"/>
										</g>
										<path style="fill:#FF7D6F;" d="M529.567,236.174c-0.194,0.63-1.52,0.781-2.963,0.337
											c-1.442-0.444-2.455-1.314-2.261-1.944s1.52-0.781,2.963-0.337C528.749,234.673,529.761,235.544,529.567,236.174z"/>
										<path style="fill:#FF7D6F;" d="M548.504,231.914c0.296,0.915-1.162,2.206-3.257,2.884
											c-2.095,0.678-4.033,0.486-4.329-0.429c-0.296-0.915,1.162-2.206,3.257-2.884
											C546.269,230.807,548.207,230.999,548.504,231.914z"/>
										<g>
											<path style="fill:#FF7D6F;" d="M533.96,235.172c1.274-0.464,2.483-1.104,3.584-1.895c0.405,0.36,0.715,0.869,0.775,1.407
												c-0.989,0.933-2.465,1.391-3.798,1.121C534.205,235.741,533.977,235.494,533.96,235.172z"/>
											<path style="fill:#FC5B68;" d="M538.271,234.757c-1.158,0.62-2.589,0.644-3.822,0.192
												c0.794-2.365,0.133-5.055-1.519-6.923c1.275,2.227,1.267,5.133-0.019,7.354c1.028,0.87,2.479,1.211,3.739,0.737
												C537.275,235.882,538.049,235.387,538.271,234.757z"/>
										</g>
									</g>
								</g>
							</g>
						</g>
						<g>
							<path style="fill:#343C4B;" d="M557.74,223.264c-0.545,0.885-1.203,1.657-1.941,2.236c-1.952,1.521-3.213,3.916-2.486,6.3
								c-3.36-4.359-4.688-10.205-3.553-15.586c-4.45,0.375-9.024-1.09-12.43-3.973c0.92,0.988,1.147,2.554,0.556,3.769
								c-0.965-1.589-2.679-2.702-4.529-2.94c1.305,2.599,0.238,6.141-2.293,7.571c-0.091-1.941-1.249-3.803-2.952-4.734
								c1.34,5.846-2.191,12.407-7.798,14.507c0.613-0.568,1.067-1.271,1.351-2.043c0.885-2.361,0.239-5.369-1.827-6.89
								c-1.975-1.453-2.157-4.995-1.873-7.435c0.295-2.441,1.601-4.745,3.542-6.243c2.418-1.873,5.608-2.441,8.661-2.554
								c3.053-0.102,6.141,0.182,9.172-0.261c2.021-0.295,3.984-0.897,6.005-1.169c2.032-0.261,4.2-0.159,5.959,0.885
								c1.748,1.044,2.94,3.212,2.361,5.176c2.679,1.328,5.131,4.052,5.619,7.015C559.613,218.916,558.955,221.346,557.74,223.264z"
								/>
							<g>
								<path style="fill:#FFBF90;" d="M551.305,238.755c2.999-0.417,5.085-2.335,6.17-3.901c0.244-0.353,0.437-0.689,0.578-0.985
									c0.767-1.612,0.692-7.038-1.598-8.163c-1.605-0.787-2.659,0.557-3.145,1.434c0,0.001,0,0.003,0,0.003
									c-0.208,0.373-0.313,0.661-0.313,0.661L551.305,238.755z"/>
								<path style="fill:#FFA07F;" d="M551.305,238.755c2.999-0.417,5.085-2.335,6.17-3.901c0.092-0.159,0.172-0.309,0.24-0.452
									c0.767-1.612,0.692-7.038-1.598-8.162c-1.3-0.639-2.238,0.122-2.807,0.9c0,0.001,0,0.003,0,0.003
									c-0.208,0.373-0.313,0.661-0.313,0.661L551.305,238.755z"/>
								<path style="fill:#FF7D6F;" d="M557.41,229.963c0.137,0.426,0.094,0.881-0.023,1.317c-0.497,1.852-2.228,3.346-3.888,4.736
									c0.471-0.912,0.604-1.918,0.439-2.88c-0.057-0.335-0.15-0.666-0.173-1.004C553.671,230.771,556.602,227.443,557.41,229.963z
									"/>
								<g>
									<path style="fill:#CF4A57;" d="M552.658,236.584c0,0,0.033-0.021,0.095-0.062c0.06-0.042,0.159-0.098,0.27-0.184
										c0.223-0.169,0.53-0.437,0.81-0.825c0.279-0.386,0.524-0.894,0.619-1.484c0.083-0.587,0.018-1.262-0.333-1.895
										c-0.038-0.081-0.089-0.156-0.141-0.231l-0.038-0.056c-0.01-0.014-0.004-0.005-0.005-0.007l0.001,0.002l-0.002-0.001
										l-0.001,0c0,0-0.002,0.003,0.004-0.01l0.025-0.054l0.052-0.107c0.036-0.07,0.071-0.141,0.109-0.209
										c0.148-0.276,0.31-0.536,0.479-0.779c0.169-0.243,0.345-0.468,0.519-0.674c0.177-0.205,0.347-0.398,0.519-0.544
										c0.171-0.147,0.364-0.247,0.547-0.282c0.184-0.032,0.362,0,0.483,0.051c0.123,0.053,0.194,0.125,0.224,0.18
										c0.033,0.055,0.033,0.09,0.036,0.089c0,0,0.007-0.034-0.011-0.096c-0.016-0.063-0.07-0.155-0.194-0.236
										c-0.123-0.078-0.313-0.148-0.559-0.14c-0.245,0.013-0.504,0.11-0.732,0.257c-0.23,0.148-0.433,0.328-0.647,0.525
										c-0.212,0.199-0.426,0.421-0.63,0.666c-0.203,0.245-0.398,0.513-0.571,0.802c-0.044,0.072-0.085,0.146-0.127,0.22
										l-0.06,0.112l-0.079,0.159l-0.055,0.112c0.018,0.035,0.044,0.069,0.066,0.104l0.098,0.149
										c0.044,0.065,0.088,0.13,0.121,0.201c0.305,0.549,0.4,1.137,0.381,1.67c-0.031,0.535-0.182,1.018-0.377,1.405
										c-0.196,0.388-0.429,0.681-0.605,0.876c-0.087,0.098-0.168,0.167-0.216,0.218
										C552.685,236.558,552.658,236.584,552.658,236.584z"/>
								</g>
							</g>
							<path style="fill:#3D4756;" d="M559.273,219.155c-0.205,1.419-0.749,2.872-1.533,4.109c-2.191-0.794-4.257-2.168-5.46-4.155
								c-1.226-2.055-1.408-4.824-0.057-6.8c-6.561-0.136-13.1-1.101-19.423-2.861c0.874,0.636,1.567,1.521,1.975,2.52
								c-2.021-0.806-4.2-1.226-6.38-1.237c1.34,1.022,2.021,2.827,1.703,4.473c-2.27-1.612-5.142-2.361-7.923-2.066
								c2.917,4.552,2.668,10.886-0.511,15.234c0.885-2.361,0.239-5.369-1.827-6.89c-0.318-0.238-0.59-0.522-0.817-0.851
								c-1.203-1.714-1.294-4.541-1.056-6.584c0.091-0.738,0.261-1.453,0.522-2.134c0.193-0.488,0.409-0.965,0.681-1.408
								c0.59-1.044,1.385-1.964,2.338-2.702c2.418-1.873,5.608-2.441,8.661-2.554c3.053-0.102,6.141,0.182,9.172-0.261
								c2.021-0.295,3.984-0.897,6.005-1.169c2.032-0.261,4.2-0.159,5.959,0.885c1.748,1.044,2.94,3.212,2.361,5.176
								c2.679,1.328,5.131,4.052,5.619,7.015C559.398,217.611,559.398,218.383,559.273,219.155z"/>
							<path style="fill:#495969;" d="M518.487,211.912c1.578,2.577,1.794,5.982,0.534,8.718c-1.203-1.714-1.294-4.541-1.056-6.584
								C518.055,213.309,518.225,212.593,518.487,211.912z"/>
							<path style="fill:#495969;" d="M559.273,219.155c-0.08-0.023-0.148-0.045-0.227-0.079c-1.805-0.693-3.428-2.146-3.791-4.03
								c-0.125-0.647-0.091-1.305-0.216-1.952c-0.125-0.647-0.432-1.305-1.022-1.6c-0.579-0.295-1.442-0.034-1.589,0.602
								c-0.136-1.476-1.339-2.69-2.702-3.258c-1.373-0.579-2.894-0.636-4.381-0.636c-5.528,0-11.159,0.545-16.505-0.851
								c0.659,0.511,1.169,1.192,1.476,1.952c-1.986-0.602-4.075-0.851-6.153-0.749c0.829,0.987,1.657,1.964,2.486,2.951
								c-2.463-0.522-4.961-0.851-7.481-0.999c0.59-1.044,1.385-1.964,2.338-2.702c2.418-1.873,5.608-2.441,8.661-2.554
								c3.053-0.102,6.141,0.182,9.172-0.261c2.021-0.295,3.984-0.897,6.005-1.169c2.032-0.261,4.2-0.159,5.959,0.885
								c1.748,1.044,2.94,3.212,2.361,5.176c2.679,1.328,5.131,4.052,5.619,7.015C559.398,217.611,559.398,218.383,559.273,219.155z
								"/>
						</g>
					</g>
				</g>
			</g>
			<g>
				<g>
					<path style="fill:#CC7256;" d="M440.144,272.864c3.497,3.639,18.808,13.52,27.577,18.498
						c45.145,25.623,128.673,68.761,130.932,64.779c2.261-3.983-77.602-53.578-122.747-79.201
						c-8.769-4.977-24.868-13.121-30.02-14.193L440.144,272.864z"/>
					<path style="fill:#FFFFFF;" d="M475.906,276.939c-8.769-4.977-24.868-13.121-30.02-14.192l-5.742,10.117
						c3.496,3.638,18.807,13.52,27.576,18.497c0.974,0.553,1.972,1.117,2.981,1.685l8.18-14.412
						C477.876,278.06,476.88,277.492,475.906,276.939z"/>
					<path style="fill:#A04F39;" d="M592.766,350.124c4.11,3.182,6.291,5.32,5.894,6.02c-2.264,3.988-85.806-39.158-130.941-64.776
						c-8.774-4.98-24.072-14.871-27.568-18.501l2.297-4.047c3.496,3.63,18.794,13.521,27.568,18.501
						C507.155,308.401,570.296,341.357,592.766,350.124z"/>
					<path style="fill:#DFDEEE;" d="M442.444,268.835c3.507,3.62,18.799,13.509,27.575,18.497c0.979,0.552,1.959,1.104,2.968,1.664
						l-2.291,4.042c-1.01-0.56-1.989-1.112-2.969-1.664c-8.775-4.988-24.087-14.866-27.575-18.497L442.444,268.835z"/>
				</g>
				<path style="fill:#3D4756;" d="M446.411,270.041c-1.447,2.368-3.928,4.201-7.306,4.805c-3.488,0.617-7.33-0.817-10.444-2.944
					c-4.487-3.061-7.838-7.535-9.841-12.299c-1.984-4.753-2.661-9.767-2.576-14.631c0.401,0.562,0.794,1.094,1.217,1.617
					c0.159,0.218,0.348,0.429,0.518,0.628c3.102,3.689,6.769,6.157,11.969,6.33c3.211,0.099,6.436-0.282,9.641,0.508
					c0.772,0.181,1.519,0.451,2.272,0.801C448.254,257.866,449.496,265.104,446.411,270.041z"/>
			</g>
			<g>
				<g>
					<g>
						<g>
							<g>
								<g>
									<g>
										<g>
											<path style="fill:#FFA07F;" d="M564.691,328.775c-0.17,0.227-4.654,6.141-5.097,6.3
												c-1.101,0.386-8.684-0.999-8.684-0.999l-4.211,3.633c-0.261-0.034-0.534-0.216-0.84-0.477
												c-0.272-0.239-0.568-0.545-0.874-0.908c-0.045-0.068-0.114-0.148-0.17-0.216c-0.477-0.59-0.976-1.283-1.43-1.987
												c-0.102-0.17-0.216-0.329-0.318-0.499v-0.011c-0.045-0.046-0.068-0.102-0.102-0.148c-0.091-0.136-0.17-0.272-0.249-0.397
												c-0.897-1.453-1.567-2.668-1.567-2.668l4.291-5.733l4.461-2.055l-2.384-2.043c0,0-10.75,3.439-11.125,1.782
												c-0.363-1.646,5.539-3.848,9.422-5.245c0.545-0.204,1.249-0.272,2.009-0.272c1.816,0.023,4.064,0.534,6.107,1.181
												c0.568,0.17,1.112,0.352,1.635,0.522c0.817,0.284,1.566,0.556,2.191,0.806c0.182,0.079,0.352,0.147,0.51,0.216
												l4.007,5.755h0.011l2.077,2.985L564.691,328.775z"/>
										</g>
									</g>
								</g>
							</g>
							<g>
								<g>
									<path style="fill:#CF4A57;" d="M542.717,333.071c0.111,0.182,0.229,0.365,0.347,0.55c0.035-0.032,0.067-0.071,0.099-0.107
										c0.555-0.619,1.318-1.445,2.161-2.317c0.85-0.872,1.669-1.605,2.346-2.086c0.172-0.119,0.325-0.228,0.462-0.321
										c0.147-0.086,0.275-0.158,0.377-0.219c0.212-0.125,0.329-0.195,0.329-0.195s-0.137,0.009-0.392,0.037
										c-0.126,0.017-0.285,0.034-0.466,0.065c-0.175,0.041-0.376,0.096-0.596,0.16c-0.878,0.268-2.02,0.883-2.949,1.838
										C543.575,331.363,543.034,332.323,542.717,333.071z"/>
								</g>
							</g>
							<g>
								<path style="fill:#CF4A57;" d="M544.819,336.106c0.053,0.073,0.115,0.143,0.168,0.213c0.156-0.173,0.356-0.402,0.6-0.676
									c0.555-0.619,1.318-1.445,2.161-2.32c0.85-0.869,1.669-1.602,2.346-2.083c0.172-0.119,0.328-0.227,0.466-0.324
									c0.147-0.083,0.272-0.158,0.377-0.216c0.208-0.125,0.329-0.198,0.329-0.198s-0.14,0.009-0.396,0.04
									c-0.126,0.014-0.285,0.034-0.466,0.062c-0.175,0.044-0.373,0.097-0.597,0.163c-0.874,0.265-2.017,0.88-2.949,1.835
									c-0.922,0.959-1.478,1.998-1.787,2.77C544.958,335.658,544.877,335.905,544.819,336.106z"/>
							</g>
						</g>
					</g>
					<path style="fill:#FFBF90;" d="M564.362,328.298l-2.861-0.613c0,0-0.647-1.18-1.419-2.599c-1.022-1.85-2.282-4.087-2.633-4.518
						c-0.613-0.761-10.546-2.838-10.546-2.838c-4.109,0.488-10.512,4.62-10.512,4.62c-0.363-1.646,5.539-3.848,9.422-5.245
						c0.545-0.204,1.249-0.272,2.009-0.272c1.816,0.023,4.064,0.534,6.107,1.181c0.568,0.17,1.112,0.352,1.635,0.522
						c0.817,0.284,1.566,0.556,2.191,0.806c0.182,0.079,0.352,0.147,0.51,0.216l4.007,5.755h0.011L564.362,328.298z"/>
				</g>
				<g>
					<path style="fill:#FCC700;" d="M570.477,333.953c-2.883,0.715-4.768,1.135-4.768,1.135l-10.216-18.253l6.289-2.418
						l13.043-4.995l-7.696-22.011l-1.419-29.151c0,0,14.473,8.434,15.608,9.853c1.135,1.419,17.879,49.379,18.73,54.204
						C600.706,326.03,580.058,331.581,570.477,333.953z"/>
					<path style="fill:#FFFFFF;" d="M570.477,333.953c-2.883,0.715-4.768,1.135-4.768,1.135l-10.216-18.253l6.289-2.418
						L570.477,333.953z"/>
					<path style="fill:#FDA859;" d="M577.285,268.238c-6.011,3.77-9.785,9.991-10.382,17.057c-0.061,0.728,1.074,0.724,1.135,0
						c0.562-6.652,4.167-12.533,9.82-16.077C578.476,268.832,577.907,267.849,577.285,268.238z"/>
				</g>
			</g>
			<path style="fill:#FFA07F;" d="M489.233,296.885c-1.202-0.323-5.693,4.057-4.318,2.727c1.374-1.33,4.167-8.218,2.988-8.975
				c-1.179-0.757-8.957,6.586-8.957,6.586s4.717-7.067,2.158-8.069c-0.837-0.328-2.193,0.385-3.639,1.484
				c0.224-2.02,0.035-3.693-1.31-3.394c-3.17,0.706-5.021,9.575-5.021,9.575c-1.064,10.476,15.434,7.848,15.434,7.848
				S490.435,297.208,489.233,296.885z"/>
		</g>
		<g>
			<line style="fill:none;stroke:#3D4756;stroke-miterlimit:10;" x1="393.595" y1="223.612" x2="487.21" y2="200.371"/>
			<path style="fill:#3D4756;" d="M396.859,223.612c0,1.803-1.461,3.264-3.264,3.264s-3.264-1.461-3.264-3.264
				c0-1.802,1.461-3.263,3.264-3.263S396.859,221.809,396.859,223.612z"/>
			<line style="fill:none;stroke:#3D4756;stroke-miterlimit:10;" x1="393.595" y1="223.612" x2="452.776" y2="249.468"/>
			<path style="fill:#3D4756;" d="M456.04,249.468c0,1.802-1.461,3.264-3.264,3.264s-3.264-1.461-3.264-3.264
				c0-1.803,1.461-3.264,3.264-3.264S456.04,247.666,456.04,249.468z"/>
			<path style="fill:#3D4756;" d="M490.473,200.371c0,1.802-1.461,3.264-3.264,3.264s-3.264-1.461-3.264-3.264
				c0-1.803,1.461-3.264,3.264-3.264S490.473,198.569,490.473,200.371z"/>
		</g>
		<g>
			<g>
				<path style="fill:#FFFFFF;" d="M575.509,199.474l-1.225-3.626l-1.225,3.626c-1.577,4.668-4.852,8.572-9.175,10.936l0,0l0,0
					c4.323,2.364,7.598,6.268,9.175,10.936l1.225,3.626l1.225-3.626c1.577-4.668,4.852-8.572,9.175-10.936l0,0l0,0
					C580.361,208.046,577.086,204.142,575.509,199.474z"/>
				<path style="fill:#FFFFFF;" d="M590.854,222.999l-0.849-2.515l-0.849,2.515c-1.094,3.238-3.365,5.946-6.364,7.586h0h0
					c2.998,1.64,5.27,4.348,6.364,7.586l0.849,2.515l0.849-2.515c1.094-3.238,3.365-5.946,6.364-7.586l0,0l0,0
					C594.219,228.944,591.948,226.236,590.854,222.999z"/>
			</g>
		</g>
		<circle style="fill:#FFFFFF;" cx="118.472" cy="330.502" r="5.049"/>
		<path style="fill:#FFFFFF;" d="M268.361,420.868c0,2.789-2.261,5.049-5.049,5.049c-2.789,0-5.049-2.261-5.049-5.049
			c0-2.789,2.261-5.049,5.049-5.049C266.1,415.819,268.361,418.079,268.361,420.868z"/>
		<circle style="fill:#FFFFFF;" cx="368.345" cy="422.552" r="5.049"/>
		<path style="fill:#FFFFFF;" d="M146.862,321.484c0,1.394-1.13,2.525-2.525,2.525s-2.525-1.13-2.525-2.525s1.13-2.525,2.525-2.525
			S146.862,320.089,146.862,321.484z"/>
		<path style="fill:#FFFFFF;" d="M298.335,401.559c0,1.394-1.13,2.525-2.525,2.525c-1.394,0-2.525-1.13-2.525-2.525
			c0-1.394,1.13-2.525,2.525-2.525C297.205,399.034,298.335,400.164,298.335,401.559z"/>
		<path style="fill:#FFFFFF;" d="M425.711,408.417c0,1.394-1.13,2.525-2.525,2.525c-1.394,0-2.525-1.13-2.525-2.525
			s1.13-2.525,2.525-2.525C424.58,405.892,425.711,407.023,425.711,408.417z"/>
		<path style="fill:#FFFFFF;" d="M346.161,410.084c0,1.394-1.13,2.525-2.525,2.525c-1.394,0-2.525-1.13-2.525-2.525
			s1.13-2.525,2.525-2.525C345.03,407.56,346.161,408.69,346.161,410.084z"/>
	</g>
</g>
<g id="DESIGNED_BY_FREEPIK">
	<g>
		<g id="XMLID_1_">
			<g id="XMLID_21_">
				<path id="XMLID_29_" style="fill:#1D262D;" d="M385.105,462.676c-0.433,0.442-0.804,0.931-1.108,1.452l-0.466-0.24
					c-0.066-0.298-0.349-0.503-0.658-0.467c-0.331,0.039-0.568,0.339-0.529,0.67c0.039,0.331,0.339,0.568,0.67,0.529
					c0.065-0.008,0.127-0.026,0.184-0.053l0.451,0.234c-0.251,0.554-0.433,1.139-0.539,1.744l0.746,0.131
					c0.231-1.306,0.85-2.506,1.792-3.472L385.105,462.676z"/>
				<path id="XMLID_28_" style="fill:#1D262D;" d="M390.592,460.373c-0.171,0-0.341,0.007-0.51,0.018l-0.073-0.626
					c0.188-0.149,0.296-0.39,0.266-0.645c-0.046-0.394-0.402-0.675-0.795-0.629c-0.394,0.047-0.675,0.402-0.629,0.796
					c0.03,0.254,0.189,0.461,0.405,0.564l0.073,0.624c-0.714,0.116-1.403,0.332-2.06,0.646l0.327,0.684
					c0.934-0.447,1.941-0.673,2.995-0.673c0.496,0,0.993,0.053,1.475,0.157l0.161-0.741
					C391.693,460.432,391.143,460.373,390.592,460.373z"/>
				<path id="XMLID_27_" style="fill:#1D262D;" d="M397.194,462.921c0.331-0.041,0.566-0.342,0.525-0.673
					c-0.04-0.331-0.342-0.565-0.672-0.525c-0.31,0.038-0.535,0.304-0.53,0.608l-0.416,0.363c-0.418-0.43-0.89-0.813-1.408-1.139
					l-0.403,0.641c1.134,0.715,2.02,1.727,2.563,2.926l0.69-0.313c-0.251-0.555-0.567-1.072-0.942-1.545l0.402-0.352
					C397.065,462.926,397.129,462.928,397.194,462.921z"/>
				<path id="XMLID_26_" style="fill:#1D262D;" d="M390.044,470.582c-0.386,0.023-0.774,0.034-1.157,0.034
					c-0.88,0-1.732-0.061-2.478-0.179c-0.391-0.063-0.847-0.155-1.271-0.292c1.046,1.86,3.069,3.125,5.389,3.125
					c2.855,0,5.262-1.916,5.949-4.504c-0.682,0.449-1.506,0.825-2.459,1.123C392.839,470.257,391.464,470.496,390.044,470.582z"/>
				<path id="XMLID_22_" style="fill:#1D262D;" d="M390.592,461.889c-3.353,0-6.079,2.666-6.079,5.943
					c0,0.426,0.046,0.849,0.137,1.262c0.674,0.482,2.706,0.89,5.348,0.73c2.879-0.173,5.297-0.957,6.672-2.158
					c-0.005-0.195-0.021-0.391-0.045-0.582C396.244,464.123,393.651,461.889,390.592,461.889z M388.433,468.404
					c-1.021,0-1.85-0.83-1.85-1.85c0-1.021,0.829-1.85,1.85-1.85c1.02,0,1.85,0.829,1.85,1.85
					C390.282,467.574,389.452,468.404,388.433,468.404z M393.17,467.496c-0.75,0-1.36-0.61-1.36-1.36s0.61-1.36,1.36-1.36
					s1.36,0.61,1.36,1.36S393.92,467.496,393.17,467.496z"/>
			</g>
			<path id="XMLID_19_" style="fill:#1D262D;" d="M406.596,463.757c-0.295-0.116-0.806-0.309-1.383-0.237
				c-0.551,0.068-0.844,0.341-0.844,1.007v0.865h2.228v1.718h-2.228v5.454h-1.932v-5.454h-1.34v-1.718h1.34v-0.888
				c0-1.681,0.896-2.783,2.568-2.783c0.642,0,1.157,0.122,1.59,0.309V463.757z"/>
			<path id="XMLID_17_" style="fill:#1D262D;" d="M411.298,467.089c-0.177-0.03-0.358-0.047-0.526-0.047
				c-0.895,0-1.51,0.548-1.51,1.614v3.907h-1.932v-7.172h1.873v0.785c0.451-0.674,1.14-0.978,2.021-0.978
				c0.414,0,0.848,0.128,1.094,0.337L411.298,467.089z"/>
			<path id="XMLID_14_" style="fill:#1D262D;" d="M418.965,468.966c0,0.222-0.015,0.488-0.037,0.651h-5.084
				c0.207,1.036,0.933,1.487,1.843,1.487c0.621,0,1.295-0.251,1.814-0.688l1.132,1.243c-0.813,0.747-1.85,1.088-3.057,1.088
				c-2.198,0-3.723-1.495-3.723-3.753c0-2.257,1.481-3.797,3.627-3.797C417.544,465.199,418.958,466.731,418.965,468.966z
				 M413.851,468.301h3.175c-0.177-0.918-0.732-1.436-1.562-1.436C414.554,466.864,414.022,467.412,413.851,468.301z"/>
			<path id="XMLID_11_" style="fill:#1D262D;" d="M426.618,468.966c0,0.222-0.015,0.488-0.037,0.651h-5.084
				c0.207,1.036,0.933,1.487,1.843,1.487c0.621,0,1.295-0.251,1.814-0.688l1.132,1.243c-0.815,0.747-1.851,1.088-3.057,1.088
				c-2.198,0-3.723-1.495-3.723-3.753c0-2.257,1.48-3.797,3.626-3.797C425.197,465.199,426.611,466.731,426.618,468.966z
				 M421.504,468.301h3.176c-0.178-0.918-0.733-1.436-1.563-1.436C422.207,466.864,421.674,467.412,421.504,468.301z"/>
			<path id="XMLID_8_" style="fill:#1D262D;" d="M434.964,468.974c0,2.153-1.495,3.775-3.471,3.775
				c-0.963,0-1.644-0.378-2.109-0.933v3.708h-1.925v-10.133h1.888v0.792c0.466-0.585,1.154-0.984,2.139-0.984
				C433.469,465.199,434.964,466.82,434.964,468.974z M429.287,468.974c0,1.132,0.748,1.976,1.843,1.976
				c1.14,0,1.851-0.881,1.851-1.976c0-1.096-0.711-1.977-1.851-1.977C430.035,466.998,429.287,467.841,429.287,468.974z"/>
			<path id="XMLID_4_" style="fill:#1D262D;" d="M438.068,463.046c0,0.695-0.54,1.229-1.235,1.229c-0.696,0-1.23-0.533-1.23-1.229
				c0-0.696,0.533-1.244,1.23-1.244C437.527,461.802,438.068,462.349,438.068,463.046z M437.809,472.563h-1.931v-7.172h1.931
				V472.563z"/>
			<path id="XMLID_2_" style="fill:#1D262D;" d="M441.032,467.945l2.701-2.554h2.369l-3.479,3.375l3.501,3.797h-2.376l-2.716-2.901
				v2.901h-1.932v-10.657h1.932V467.945z"/>
		</g>
		<g>
			<path style="fill:#1D262D;" d="M309.413,472.499v-1.055c-0.527,0.718-1.391,1.23-2.388,1.23c-1.846,0-3.149-1.406-3.149-3.706
				c0-2.256,1.289-3.721,3.149-3.721c0.952,0,1.816,0.469,2.388,1.245v-3.765h1.099v9.771H309.413z M309.413,470.58v-3.208
				c-0.395-0.615-1.245-1.143-2.124-1.143c-1.421,0-2.27,1.172-2.27,2.739c0,1.567,0.85,2.725,2.27,2.725
				C308.168,471.693,309.017,471.195,309.413,470.58z"/>
			<path style="fill:#1D262D;" d="M311.932,468.954c0-2.051,1.465-3.706,3.487-3.706c2.138,0,3.398,1.67,3.398,3.794v0.278h-5.728
				c0.088,1.333,1.025,2.446,2.549,2.446c0.806,0,1.626-0.322,2.183-0.893l0.527,0.718c-0.703,0.703-1.655,1.084-2.813,1.084
				C313.441,472.674,311.932,471.166,311.932,468.954z M315.404,466.156c-1.509,0-2.256,1.274-2.314,2.358h4.644
				C317.718,467.46,317.015,466.156,315.404,466.156z"/>
			<path style="fill:#1D262D;" d="M319.607,471.561l0.571-0.791c0.469,0.542,1.362,1.011,2.329,1.011c1.084,0,1.67-0.513,1.67-1.216
				c0-1.714-4.38-0.659-4.38-3.281c0-1.099,0.952-2.036,2.637-2.036c1.201,0,2.051,0.454,2.622,1.025l-0.513,0.762
				c-0.424-0.513-1.201-0.894-2.109-0.894c-0.967,0-1.567,0.483-1.567,1.113c0,1.553,4.379,0.527,4.379,3.281
				c0,1.187-0.952,2.139-2.783,2.139C321.306,472.674,320.325,472.323,319.607,471.561z"/>
			<path style="fill:#1D262D;" d="M326.477,463.68c0-0.41,0.337-0.747,0.732-0.747c0.41,0,0.747,0.337,0.747,0.747
				c0,0.41-0.337,0.732-0.747,0.732C326.814,464.413,326.477,464.091,326.477,463.68z M326.667,472.499v-7.075h1.099v7.075H326.667z
				"/>
			<path style="fill:#1D262D;" d="M329.582,474.315l0.557-0.82c0.586,0.703,1.289,0.967,2.3,0.967c1.172,0,2.27-0.571,2.27-2.124
				v-1.011c-0.512,0.718-1.376,1.26-2.373,1.26c-1.845,0-3.149-1.377-3.149-3.662c0-2.271,1.289-3.677,3.149-3.677
				c0.952,0,1.802,0.469,2.373,1.245v-1.069h1.099v6.87c0,2.344-1.641,3.076-3.369,3.076
				C331.237,475.37,330.417,475.135,329.582,474.315z M334.709,470.463v-3.091c-0.381-0.615-1.23-1.143-2.109-1.143
				c-1.421,0-2.271,1.128-2.271,2.695c0,1.553,0.849,2.695,2.271,2.695C333.478,471.62,334.328,471.078,334.709,470.463z"/>
			<path style="fill:#1D262D;" d="M342.413,472.499v-4.629c0-1.245-0.629-1.641-1.582-1.641c-0.865,0-1.685,0.527-2.095,1.099v5.171
				h-1.099v-7.075h1.099v1.025c0.498-0.586,1.464-1.201,2.519-1.201c1.479,0,2.256,0.747,2.256,2.285v4.966H342.413z"/>
			<path style="fill:#1D262D;" d="M344.933,468.954c0-2.051,1.465-3.706,3.486-3.706c2.138,0,3.398,1.67,3.398,3.794v0.278h-5.728
				c0.088,1.333,1.025,2.446,2.549,2.446c0.806,0,1.626-0.322,2.183-0.893l0.527,0.718c-0.703,0.703-1.655,1.084-2.813,1.084
				C346.442,472.674,344.933,471.166,344.933,468.954z M348.404,466.156c-1.509,0-2.256,1.274-2.314,2.358h4.643
				C350.719,467.46,350.015,466.156,348.404,466.156z"/>
			<path style="fill:#1D262D;" d="M358.35,472.499v-1.055c-0.527,0.718-1.392,1.23-2.388,1.23c-1.845,0-3.149-1.406-3.149-3.706
				c0-2.256,1.289-3.721,3.149-3.721c0.952,0,1.817,0.469,2.388,1.245v-3.765h1.098v9.771H358.35z M358.35,470.58v-3.208
				c-0.396-0.615-1.245-1.143-2.124-1.143c-1.421,0-2.271,1.172-2.271,2.739c0,1.567,0.85,2.725,2.271,2.725
				C357.105,471.693,357.954,471.195,358.35,470.58z"/>
			<path style="fill:#1D262D;" d="M364.692,472.499v-9.771h1.099v3.765c0.572-0.776,1.421-1.245,2.388-1.245
				c1.846,0,3.149,1.465,3.149,3.721c0,2.3-1.304,3.706-3.149,3.706c-0.996,0-1.86-0.513-2.388-1.23v1.055H364.692z M367.9,471.693
				c1.436,0,2.286-1.157,2.286-2.725c0-1.567-0.85-2.739-2.286-2.739c-0.864,0-1.728,0.527-2.109,1.143v3.208
				C366.172,471.195,367.036,471.693,367.9,471.693z"/>
			<path style="fill:#1D262D;" d="M372.529,474.271c0.161,0.073,0.425,0.117,0.601,0.117c0.483,0,0.805-0.161,1.055-0.747
				l0.468-1.069l-2.959-7.148h1.187l2.358,5.801l2.344-5.801h1.201l-3.545,8.511c-0.425,1.025-1.143,1.421-2.08,1.436
				c-0.234,0-0.601-0.044-0.806-0.103L372.529,474.271z"/>
		</g>
	</g>
</g>
</svg>
